<?xml version="1.0" encoding="UTF-8"?>
<svg version="1.1" xmlns="http://www.w3.org/2000/svg" width="793" height="180">
<path d="M0 0 C0.495 2.475 0.495 2.475 1 5 C1.66 5 2.32 5 3 5 C3.495 7.97 3.495 7.97 4 11 C4.66 11 5.32 11 6 11 C8.03435531 14.72965139 9 16.66905042 9 21 C9.66 21 10.32 21 11 21 C11.495 23.97 11.495 23.97 12 27 C12.66 27 13.32 27 14 27 C14.495 29.97 14.495 29.97 15 33 C15.66 33 16.32 33 17 33 C17.495 35.97 17.495 35.97 18 39 C18.66 39 19.32 39 20 39 C20.495 41.97 20.495 41.97 21 45 C21.66 45 22.32 45 23 45 C23 46.32 23 47.64 23 49 C23.66 49 24.32 49 25 49 C25.495 51.97 25.495 51.97 26 55 C26.66 55 27.32 55 28 55 C28.495 57.97 28.495 57.97 29 61 C29.66 61 30.32 61 31 61 C31.495 62.98 31.495 62.98 32 65 C30.92456217 65.98783194 29.83926783 66.96493943 28.75 67.9375 C28.14671875 68.48277344 27.5434375 69.02804688 26.921875 69.58984375 C25 71 25 71 22.828125 71.50390625 C22.22484375 71.66761719 21.6215625 71.83132812 21 72 C20.505 73.485 20.505 73.485 20 75 C19.34 75 18.68 75 18 75 C17.505 76.485 17.505 76.485 17 78 C16.34 78 15.68 78 15 78 C14.505 79.98 14.505 79.98 14 82 C13.34 82 12.68 82 12 82 C11.71125 82.5775 11.4225 83.155 11.125 83.75 C10.08333333 85.83333333 9.04166667 87.91666667 8 90 C7.34 90 6.68 90 6 90 C6 90.66 6 91.32 6 92 C5.34 92 4.68 92 4 92 C3.67 93.65 3.34 95.3 3 97 C2.34 97 1.68 97 1 97 C0.67 98.98 0.34 100.96 0 103 C-0.66 103 -1.32 103 -2 103 C-2.33 104.98 -2.66 106.96 -3 109 C-3.66 109 -4.32 109 -5 109 C-4.938125 109.721875 -4.87625 110.44375 -4.8125 111.1875 C-5.04072778 114.61091676 -6.15470059 116.12953426 -8 119 C-9.06993734 121.30855849 -10.0308161 123.64626767 -11 126 C-11.66 126 -12.32 126 -13 126 C-13.33 127.65 -13.66 129.3 -14 131 C-14.66 131 -15.32 131 -16 131 C-16.33 133.31 -16.66 135.62 -17 138 C-17.66 138 -18.32 138 -19 138 C-19.495 140.97 -19.495 140.97 -20 144 C-20.66 144 -21.32 144 -22 144 C-22.0928125 145.5778125 -22.0928125 145.5778125 -22.1875 147.1875 C-23.17762888 151.83348934 -24.38309437 152.98640976 -28 156 C-30.62260292 157.33982257 -33.32945139 158.28760072 -36.1171875 159.2265625 C-36.89256866 159.50092133 -37.66794983 159.77528015 -38.46682739 160.05795288 C-40.93171774 160.92717601 -43.40285316 161.77666228 -45.875 162.625 C-48.33839196 163.48460355 -50.8003314 164.34823186 -53.26174927 165.21347046 C-54.78850557 165.74860563 -56.31665086 166.27980077 -57.84640503 166.80630493 C-63.03780585 168.60469059 -68.05998219 170.63659479 -73.046875 172.94921875 C-78.6698795 175.38671382 -83.94529866 175.30050907 -90 175 C-90 172.36 -90 169.72 -90 167 C-89.34 167 -88.68 167 -88 167 C-87.67 164.69 -87.34 162.38 -87 160 C-86.34 160 -85.68 160 -85 160 C-84.67 158.02 -84.34 156.04 -84 154 C-83.34 154 -82.68 154 -82 154 C-81.67 151.69 -81.34 149.38 -81 147 C-80.34 147 -79.68 147 -79 147 C-78.67 145.02 -78.34 143.04 -78 141 C-77.34 141 -76.68 141 -76 141 C-75.67 139.02 -75.34 137.04 -75 135 C-74.34 135 -73.68 135 -73 135 C-73 134.01 -73 133.02 -73 132 C-72.34 132 -71.68 132 -71 132 C-70.67 129.69 -70.34 127.38 -70 125 C-69.34 125 -68.68 125 -68 125 C-67.67 123.02 -67.34 121.04 -67 119 C-66.34 119 -65.68 119 -65 119 C-64.67 116.69 -64.34 114.38 -64 112 C-63.34 112 -62.68 112 -62 112 C-61.67 110.02 -61.34 108.04 -61 106 C-60.34 106 -59.68 106 -59 106 C-59 104.68 -59 103.36 -59 102 C-58.34 102 -57.68 102 -57 102 C-56.67 100.02 -56.34 98.04 -56 96 C-55.34 96 -54.68 96 -54 96 C-53.896875 95.154375 -53.79375 94.30875 -53.6875 93.4375 C-52.9171146 89.58557299 -51.63725486 86.55924969 -50 83 C-49.34 83 -48.68 83 -48 83 C-47.9071875 81.824375 -47.9071875 81.824375 -47.8125 80.625 C-46.6967665 75.64711207 -44.39693773 71.47546306 -42 67 C-41.34 67 -40.68 67 -40 67 C-39.896875 66.154375 -39.79375 65.30875 -39.6875 64.4375 C-38.9171146 60.58557299 -37.63725486 57.55924969 -36 54 C-35.34 54 -34.68 54 -34 54 C-33.896875 53.154375 -33.79375 52.30875 -33.6875 51.4375 C-32.9171146 47.58557299 -31.63725486 44.55924969 -30 41 C-29.34 41 -28.68 41 -28 41 C-27.67 39.02 -27.34 37.04 -27 35 C-26.34 35 -25.68 35 -25 35 C-25 33.68 -25 32.36 -25 31 C-24.34 31 -23.68 31 -23 31 C-22.67 29.02 -22.34 27.04 -22 25 C-21.34 25 -20.68 25 -20 25 C-19.67 22.69 -19.34 20.38 -19 18 C-18.34 18 -17.68 18 -17 18 C-16.67 16.02 -16.34 14.04 -16 12 C-15.34 12 -14.68 12 -14 12 C-13.67 9.69 -13.34 7.38 -13 5 C-12.34 5 -11.68 5 -11 5 C-11 4.01 -11 3.02 -11 2 C-10.34 2 -9.68 2 -9 2 C-9 1.34 -9 0.68 -9 0 C-5.52176885 -1.15941038 -3.54104422 -0.70820884 0 0 Z " fill="#025FFD" transform="translate(97,5)"/>
<path d="M0 0 C2.33068706 1.78943746 3.84808069 3.177182 4.8984375 5.953125 C4.9396875 6.51 4.9809375 7.066875 5.0234375 7.640625 C5.6834375 7.640625 6.3434375 7.640625 7.0234375 7.640625 C7.5184375 10.115625 7.5184375 10.115625 8.0234375 12.640625 C8.6834375 12.640625 9.3434375 12.640625 10.0234375 12.640625 C10.5184375 15.610625 10.5184375 15.610625 11.0234375 18.640625 C11.6834375 18.640625 12.3434375 18.640625 13.0234375 18.640625 C13.0234375 20.620625 13.0234375 22.600625 13.0234375 24.640625 C4.1134375 24.640625 -4.7965625 24.640625 -13.9765625 24.640625 C-14.9665625 22.165625 -14.9665625 22.165625 -15.9765625 19.640625 C-16.6365625 19.640625 -17.2965625 19.640625 -17.9765625 19.640625 C-17.9765625 18.980625 -17.9765625 18.320625 -17.9765625 17.640625 C-19.63195208 16.94642937 -21.30292273 16.28958736 -22.9765625 15.640625 C-23.64300781 15.35316406 -24.30945313 15.06570312 -24.99609375 14.76953125 C-30.86425986 12.4572066 -35.06835044 12.36652074 -40.9765625 14.640625 C-46.23746831 17.51923384 -50.0504403 20.86225841 -51.9765625 26.640625 C-52.6365625 26.640625 -53.2965625 26.640625 -53.9765625 26.640625 C-53.9765625 34.560625 -53.9765625 42.480625 -53.9765625 50.640625 C-53.3165625 50.640625 -52.6565625 50.640625 -51.9765625 50.640625 C-48.9765625 55.02524038 -48.9765625 55.02524038 -48.9765625 57.640625 C-48.3165625 57.640625 -47.6565625 57.640625 -46.9765625 57.640625 C-46.3990625 58.259375 -45.8215625 58.878125 -45.2265625 59.515625 C-41.20060903 63.31791439 -36.605296 64.1018216 -31.13671875 63.96484375 C-27.12045913 63.36204167 -23.41784488 61.77536241 -19.9765625 59.640625 C-18.9865625 58.155625 -18.9865625 58.155625 -17.9765625 56.640625 C-17.3165625 56.640625 -16.6565625 56.640625 -15.9765625 56.640625 C-14.9865625 54.660625 -14.9865625 54.660625 -13.9765625 52.640625 C-5.0665625 52.640625 3.8434375 52.640625 13.0234375 52.640625 C14.26890155 55.13155311 13.8001953 56.05143233 13.0234375 58.640625 C12.3634375 58.640625 11.7034375 58.640625 11.0234375 58.640625 C10.6934375 60.620625 10.3634375 62.600625 10.0234375 64.640625 C9.3634375 64.640625 8.7034375 64.640625 8.0234375 64.640625 C7.6934375 66.290625 7.3634375 67.940625 7.0234375 69.640625 C6.3634375 69.640625 5.7034375 69.640625 5.0234375 69.640625 C4.5284375 71.125625 4.5284375 71.125625 4.0234375 72.640625 C3.3634375 72.640625 2.7034375 72.640625 2.0234375 72.640625 C1.5284375 74.125625 1.5284375 74.125625 1.0234375 75.640625 C-4.70275851 81.6724326 -12.151708 83.62230935 -19.9765625 85.640625 C-20.90662109 85.93453125 -20.90662109 85.93453125 -21.85546875 86.234375 C-35.05134877 88.7617627 -48.54366612 86.49320608 -59.9765625 79.640625 C-68.73589906 73.4806588 -68.73589906 73.4806588 -71.9765625 69.640625 C-71.9765625 68.650625 -71.9765625 67.660625 -71.9765625 66.640625 C-72.6365625 66.640625 -73.2965625 66.640625 -73.9765625 66.640625 C-74.4715625 64.165625 -74.4715625 64.165625 -74.9765625 61.640625 C-75.6365625 61.640625 -76.2965625 61.640625 -76.9765625 61.640625 C-77.3065625 58.670625 -77.6365625 55.700625 -77.9765625 52.640625 C-78.6365625 52.640625 -79.2965625 52.640625 -79.9765625 52.640625 C-80.95136819 47.75112344 -81.12771278 43.10046192 -81.1015625 38.140625 C-81.10542969 37.40714844 -81.10929688 36.67367187 -81.11328125 35.91796875 C-81.10576489 31.71632166 -80.80166061 27.77921233 -79.9765625 23.640625 C-79.3165625 23.640625 -78.6565625 23.640625 -77.9765625 23.640625 C-77.9353125 22.526875 -77.8940625 21.413125 -77.8515625 20.265625 C-76.73406136 11.92847835 -71.86646121 6.06468516 -65.6015625 0.765625 C-45.92621115 -14.23517978 -20.25128078 -13.92775833 0 0 Z " fill="#F8F8F8" transform="translate(264.9765625,61.359375)"/>
<path d="M0 0 C2.31 0 4.62 0 7 0 C7.37125 0.9075 7.7425 1.815 8.125 2.75 C10.80016901 9.00912748 13.85764812 15.17487668 17.18359375 21.11328125 C18 23 18 23 18 27 C18.66 27 19.32 27 20 27 C20.495 29.475 20.495 29.475 21 32 C21.66 32 22.32 32 23 32 C23.495 35.465 23.495 35.465 24 39 C24.66 39 25.32 39 26 39 C27.00696568 41.10084209 28.0053589 43.20579489 29 45.3125 C29.556875 46.48425781 30.11375 47.65601563 30.6875 48.86328125 C32 52 32 52 32 55 C32.66 55 33.32 55 34 55 C34.495 57.97 34.495 57.97 35 61 C35.66 61 36.32 61 37 61 C37.495 64.465 37.495 64.465 38 68 C38.66 68 39.32 68 40 68 C40.33 69.98 40.66 71.96 41 74 C41.66 74 42.32 74 43 74 C43 74.99 43 75.98 43 77 C43.66 77 44.32 77 45 77 C45.67354499 78.43429001 46.33859701 79.87257057 47 81.3125 C47.37125 82.11300781 47.7425 82.91351563 48.125 83.73828125 C49 86 49 86 49 89 C49.66 89 50.32 89 51 89 C51.33 90.98 51.66 92.96 52 95 C52.66 95 53.32 95 54 95 C55.49297212 97.98594424 55.11755228 100.70853624 55 104 C54.67 104.66 54.34 105.32 54 106 C44.00703966 106.67748884 35.57866692 103.53256754 26.46875 99.67578125 C22.00533412 97.79580894 17.5161128 96.06411058 12.95703125 94.4296875 C11.78205078 94.00816406 10.60707031 93.58664063 9.39648438 93.15234375 C6.96655589 92.28630929 4.53416916 91.42714711 2.09960938 90.57421875 C0.93880859 90.15527344 -0.22199219 89.73632812 -1.41796875 89.3046875 C-2.46750732 88.93327637 -3.5170459 88.56186523 -4.59838867 88.17919922 C-5.39092041 87.79006348 -6.18345215 87.40092773 -7 87 C-7.33 86.01 -7.66 85.02 -8 84 C-8.66 84 -9.32 84 -10 84 C-10.25394531 83.34773438 -10.50789063 82.69546875 -10.76953125 82.0234375 C-12.30779859 78.1172755 -13.84374564 74.30692821 -15.75 70.5625 C-17 68 -17 68 -17 65 C-17.66 65 -18.32 65 -19 65 C-19.33 63.02 -19.66 61.04 -20 59 C-20.66 59 -21.32 59 -22 59 C-25.08585589 53.77118862 -24.70958907 47.56017964 -23.546875 41.7265625 C-23.09145605 40.13259618 -22.55536227 38.5619564 -22 37 C-21.34 37 -20.68 37 -20 37 C-19.67 34.36 -19.34 31.72 -19 29 C-18.34 29 -17.68 29 -17 29 C-16.67 26.69 -16.34 24.38 -16 22 C-15.34 22 -14.68 22 -14 22 C-13.67 20.35 -13.34 18.7 -13 17 C-12.34 17 -11.68 17 -11 17 C-10.67 15.68 -10.34 14.36 -10 13 C-9.34 13 -8.68 13 -8 13 C-7.731875 12.195625 -7.46375 11.39125 -7.1875 10.5625 C-6.795625 9.716875 -6.40375 8.87125 -6 8 C-5.01 7.67 -4.02 7.34 -3 7 C-1.83046584 4.57616923 -1.83046584 4.57616923 -1 2 C-0.67 1.34 -0.34 0.68 0 0 Z " fill="#025DF8" transform="translate(125,74)"/>
<path d="M0 0 C1.12019531 -0.00128906 2.24039062 -0.00257812 3.39453125 -0.00390625 C4.57402344 -0.00003906 5.75351562 0.00382812 6.96875 0.0078125 C8.73798828 0.00201172 8.73798828 0.00201172 10.54296875 -0.00390625 C12.22326172 -0.00197266 12.22326172 -0.00197266 13.9375 0 C14.97326172 0.00112793 16.00902344 0.00225586 17.07617188 0.00341797 C19.46875 0.1328125 19.46875 0.1328125 20.46875 1.1328125 C20.56194449 2.6676422 20.586208 4.20673332 20.58227539 5.74438477 C20.58219986 6.72532608 20.58212433 7.7062674 20.58204651 8.7169342 C20.57688522 9.7835881 20.57172394 10.850242 20.56640625 11.94921875 C20.5649913 13.03541 20.56357635 14.12160126 20.56211853 15.2407074 C20.55650048 18.72560325 20.54394492 22.21043592 20.53125 25.6953125 C20.52623733 28.05143137 20.52167402 30.40755124 20.51757812 32.76367188 C20.50652519 38.55340714 20.48976951 44.34310531 20.46875 50.1328125 C21.12875 50.1328125 21.78875 50.1328125 22.46875 50.1328125 C22.79875 51.1228125 23.12875 52.1128125 23.46875 53.1328125 C26.92775189 55.49505769 29.4810544 56.38348754 33.59375 55.9453125 C37.78418294 55.08891146 37.78418294 55.08891146 41.46875 53.1328125 C41.96375 52.1428125 41.96375 52.1428125 42.46875 51.1328125 C43.12875 51.1328125 43.78875 51.1328125 44.46875 51.1328125 C44.46875 34.6328125 44.46875 18.1328125 44.46875 1.1328125 C47.50640099 0.12026217 49.58037221 0.00380662 52.7578125 0 C53.78132813 -0.00128906 54.80484375 -0.00257812 55.859375 -0.00390625 C56.92671875 -0.00003906 57.9940625 0.00382812 59.09375 0.0078125 C60.16882813 0.00394531 61.24390625 0.00007813 62.3515625 -0.00390625 C63.3725 -0.00261719 64.3934375 -0.00132813 65.4453125 0 C66.38455566 0.00112793 67.32379883 0.00225586 68.29150391 0.00341797 C70.46875 0.1328125 70.46875 0.1328125 71.46875 1.1328125 C71.56367722 3.47535032 71.59434791 5.78827354 71.58227539 8.13110352 C71.58242142 8.86276733 71.58256744 9.59443115 71.5827179 10.3482666 C71.58201867 12.77778034 71.57422585 15.20721833 71.56640625 17.63671875 C71.5645421 19.31680764 71.56311819 20.99689707 71.56211853 22.67698669 C71.55829307 27.10754893 71.54846256 31.5380786 71.53741455 35.96862793 C71.52720103 40.48624226 71.52262104 45.00386184 71.51757812 49.52148438 C71.50684031 58.39194373 71.48924329 67.26237031 71.46875 76.1328125 C62.88875 76.1328125 54.30875 76.1328125 45.46875 76.1328125 C45.13875 75.4728125 44.80875 74.8128125 44.46875 74.1328125 C44.96375 72.6478125 44.96375 72.6478125 45.46875 71.1328125 C44.70949219 71.48214844 43.95023437 71.83148438 43.16796875 72.19140625 C42.17410156 72.64644531 41.18023437 73.10148437 40.15625 73.5703125 C39.17011719 74.02277344 38.18398438 74.47523438 37.16796875 74.94140625 C29.0500939 78.52454927 19.76901138 78.26703335 11.40625 75.4453125 C6.07281073 73.21781728 2.644613 70.65251894 0.15625 65.3203125 C-0.070625 64.5984375 -0.2975 63.8765625 -0.53125 63.1328125 C-1.19125 63.1328125 -1.85125 63.1328125 -2.53125 63.1328125 C-2.86125 60.4928125 -3.19125 57.8528125 -3.53125 55.1328125 C-4.19125 55.1328125 -4.85125 55.1328125 -5.53125 55.1328125 C-5.69905721 47.46083188 -5.85902413 39.7887171 -6.01342773 32.11645508 C-6.06694002 29.50411234 -6.12227613 26.89180632 -6.17944336 24.27954102 C-6.26109758 20.53409752 -6.33628427 16.78857279 -6.41015625 13.04296875 C-6.43719131 11.86694595 -6.46422638 10.69092316 -6.49208069 9.47926331 C-6.52222511 7.85769569 -6.52222511 7.85769569 -6.55297852 6.20336914 C-6.57296402 5.24628555 -6.59294952 4.28920197 -6.61354065 3.30311584 C-6.44970715 -1.01776869 -3.68307288 0.00401081 0 0 Z " fill="#FAFAFA" transform="translate(379.53125,70.8671875)"/>
<path d="M0 0 C0 0.66 0 1.32 0 2 C0.99 2.33 1.98 2.66 3 3 C3 3.66 3 4.32 3 5 C3.66 5 4.32 5 5 5 C5 5.66 5 6.32 5 7 C5.66 7 6.32 7 7 7 C7.495 9.475 7.495 9.475 8 12 C8.66 12 9.32 12 10 12 C10.495 15.465 10.495 15.465 11 19 C11.66 19 12.32 19 13 19 C14.14500285 26.80363479 13.79773542 34.16992004 13 42 C12.34 42 11.68 42 11 42 C10.67 44.31 10.34 46.62 10 49 C9.34 49 8.68 49 8 49 C7.67 50.65 7.34 52.3 7 54 C6.34 54 5.68 54 5 54 C5 54.66 5 55.32 5 56 C4.34 56 3.68 56 3 56 C2.505 57.485 2.505 57.485 2 59 C1.34 59 0.68 59 0 59 C-0.495 60.485 -0.495 60.485 -1 62 C-3.07421875 63.31640625 -3.07421875 63.31640625 -5.6875 64.5625 C-6.53699219 64.97628906 -7.38648438 65.39007813 -8.26171875 65.81640625 C-19.69932897 70.76019498 -33.07484617 70.81297859 -44.875 66.8125 C-49.67543414 64.81090555 -53.51562007 62.88259478 -57 59 C-57.875 56.6875 -57.875 56.6875 -58 55 C-58.66 55 -59.32 55 -60 55 C-60 54.34 -60 53.68 -60 53 C-60.66 53 -61.32 53 -62 53 C-62.33 51.35 -62.66 49.7 -63 48 C-63.66 48 -64.32 48 -65 48 C-65.13277344 47.28972656 -65.26554687 46.57945313 -65.40234375 45.84765625 C-65.66724609 44.46900391 -65.66724609 44.46900391 -65.9375 43.0625 C-66.11152344 42.14597656 -66.28554688 41.22945312 -66.46484375 40.28515625 C-66.77714988 38.04710156 -66.77714988 38.04710156 -68 37 C-68.09851171 35.16884117 -68.12972629 33.33380067 -68.125 31.5 C-68.12757813 30.4996875 -68.13015625 29.499375 -68.1328125 28.46875 C-68 26 -68 26 -67 25 C-66.67701029 23.27640943 -66.39164634 21.54570124 -66.125 19.8125 C-65.35238271 15.31727213 -64.32219207 11.90550484 -62 8 C-61.34 8 -60.68 8 -60 8 C-60 7.01 -60 6.02 -60 5 C-44.58768679 -10.71013569 -17.37297864 -14.7292645 0 0 Z M-37 16 C-37.96906827 18.58414426 -37.96906827 18.58414426 -38 21 C-38.66 21 -39.32 21 -40 21 C-41.91325843 27.64283328 -41.72879226 34.63281807 -39 41 C-38.5978125 42.0828125 -38.5978125 42.0828125 -38.1875 43.1875 C-36.4575365 45.82797061 -34.89886828 46.73962249 -32 48 C-25.54642102 48.72862988 -22.35938791 47.57292527 -17 44 C-17 43.34 -17 42.68 -17 42 C-16.34 42 -15.68 42 -15 42 C-13.7718359 38.17904503 -13.86714908 34.48826961 -13.875 30.5 C-13.87242187 29.1903125 -13.86984375 27.880625 -13.8671875 26.53125 C-13.97075245 23.77764076 -14.16541986 21.59647153 -15 19 C-15.66 19 -16.32 19 -17 19 C-17.33 18.01 -17.66 17.02 -18 16 C-21.48929409 13.14512301 -24.50172226 12.51889605 -29 12.71484375 C-32.18802067 13.16938576 -34.38212122 14.14832964 -37 16 Z " fill="#F7F7F7" transform="translate(352,79)"/>
<path d="M0 0 C0.53367187 0.46277344 1.06734375 0.92554687 1.6171875 1.40234375 C1.6171875 2.06234375 1.6171875 2.72234375 1.6171875 3.40234375 C2.2771875 3.40234375 2.9371875 3.40234375 3.6171875 3.40234375 C5.2421875 4.71484375 5.2421875 4.71484375 6.6171875 6.40234375 C6.6171875 7.39234375 6.6171875 8.38234375 6.6171875 9.40234375 C7.2771875 9.40234375 7.9371875 9.40234375 8.6171875 9.40234375 C9.1121875 11.87734375 9.1121875 11.87734375 9.6171875 14.40234375 C10.2771875 14.40234375 10.9371875 14.40234375 11.6171875 14.40234375 C15.98604161 23.14005196 13.53523062 37.28767604 11.6171875 46.40234375 C10.9571875 46.40234375 10.2971875 46.40234375 9.6171875 46.40234375 C9.4315625 47.54703125 9.4315625 47.54703125 9.2421875 48.71484375 C8.6171875 51.40234375 8.6171875 51.40234375 6.6171875 54.40234375 C5.9571875 54.40234375 5.2971875 54.40234375 4.6171875 54.40234375 C4.1221875 56.38234375 4.1221875 56.38234375 3.6171875 58.40234375 C2.9571875 58.40234375 2.2971875 58.40234375 1.6171875 58.40234375 C1.1221875 59.88734375 1.1221875 59.88734375 0.6171875 61.40234375 C-10.65456621 69.82406406 -24.79973511 71.03656649 -38.3828125 69.40234375 C-42.6684253 68.36462615 -46.55565139 66.58040292 -50.3828125 64.40234375 C-50.3828125 63.74234375 -50.3828125 63.08234375 -50.3828125 62.40234375 C-51.1871875 62.13421875 -51.9915625 61.86609375 -52.8203125 61.58984375 C-53.6659375 61.19796875 -54.5115625 60.80609375 -55.3828125 60.40234375 C-55.7128125 59.41234375 -56.0428125 58.42234375 -56.3828125 57.40234375 C-57.0428125 57.40234375 -57.7028125 57.40234375 -58.3828125 57.40234375 C-58.3828125 56.74234375 -58.3828125 56.08234375 -58.3828125 55.40234375 C-59.0428125 55.40234375 -59.7028125 55.40234375 -60.3828125 55.40234375 C-61.05949248 54.15773592 -61.72375969 52.90637479 -62.3828125 51.65234375 C-62.7540625 50.95625 -63.1253125 50.26015625 -63.5078125 49.54296875 C-64.3828125 47.40234375 -64.3828125 47.40234375 -64.3828125 43.40234375 C-65.0428125 43.40234375 -65.7028125 43.40234375 -66.3828125 43.40234375 C-66.57975242 40.73608016 -66.76556032 38.06977736 -66.9453125 35.40234375 C-67.02942383 34.28666016 -67.02942383 34.28666016 -67.11523438 33.1484375 C-67.44628535 28.07232257 -67.15444295 23.43223113 -66.3828125 18.40234375 C-65.7228125 18.40234375 -65.0628125 18.40234375 -64.3828125 18.40234375 C-64.2796875 17.35046875 -64.1765625 16.29859375 -64.0703125 15.21484375 C-63.40331918 11.51606262 -62.63291242 9.37247564 -60.3828125 6.40234375 C-59.7228125 6.40234375 -59.0628125 6.40234375 -58.3828125 6.40234375 C-58.3828125 5.74234375 -58.3828125 5.08234375 -58.3828125 4.40234375 C-57.7228125 4.40234375 -57.0628125 4.40234375 -56.3828125 4.40234375 C-56.0528125 3.41234375 -55.7228125 2.42234375 -55.3828125 1.40234375 C-39.39431504 -12.02311213 -16.80268196 -11.42466092 0 0 Z M-35.3828125 15.40234375 C-36.26974553 17.44340014 -36.26974553 17.44340014 -36.3828125 19.40234375 C-37.0428125 19.40234375 -37.7028125 19.40234375 -38.3828125 19.40234375 C-41.53253365 25.57054767 -42.43440106 30.78839703 -40.87890625 37.61328125 C-39.37938686 42.22323228 -37.56329986 44.72254416 -33.3828125 47.40234375 C-29.75927134 49.21411433 -26.08012769 48.9183773 -22.25 47.75390625 C-18.59116378 46.17426109 -16.68704983 44.83968491 -14.3828125 41.52734375 C-12.18094202 34.93603017 -12.10410945 26.50144825 -14.73828125 20.1171875 C-16.86065567 16.61350526 -18.70574045 15.20619042 -22.3828125 13.40234375 C-26.92587509 12.68970648 -31.39761872 12.98707479 -35.3828125 15.40234375 Z " fill="#F8F8F8" transform="translate(779.3828125,78.59765625)"/>
<path d="M0 0 C0 0.66 0 1.32 0 2 C1.65 2.66 3.3 3.32 5 4 C5 4.66 5 5.32 5 6 C5.66 6 6.32 6 7 6 C7.495 7.98 7.495 7.98 8 10 C8.66 10 9.32 10 10 10 C14.46848322 19.23619522 14.69764768 27.95844814 14 38 C13 39 13 39 10.98155212 39.08229065 C10.09552811 39.06230515 9.20950409 39.04231964 8.29663086 39.02172852 C7.29566879 39.00163223 6.29470673 38.98153595 5.26341248 38.96083069 C4.1748848 38.93379562 3.08635712 38.90676056 1.96484375 38.87890625 C0.3022628 38.84348976 0.3022628 38.84348976 -1.39390564 38.80735779 C-4.95022701 38.73050064 -8.50634256 38.64657161 -12.0625 38.5625 C-14.46678665 38.50930138 -16.87108348 38.45656086 -19.27539062 38.40429688 C-25.18372238 38.27485584 -31.09190006 38.1396012 -37 38 C-37 39.98 -37 41.96 -37 44 C-36.34 44 -35.68 44 -35 44 C-34.773125 44.598125 -34.54625 45.19625 -34.3125 45.8125 C-32.50853638 48.81910603 -31.28715357 49.69883504 -28 51 C-24.61739668 50.94819903 -21.33711668 50.53782657 -18 50 C-17.67 49.01 -17.34 48.02 -17 47 C-16.34 47 -15.68 47 -15 47 C-15 46.01 -15 45.02 -15 44 C-6.09 44 2.82 44 12 44 C12.33 44.99 12.66 45.98 13 47 C12.34 47 11.68 47 11 47 C10.67 49.31 10.34 51.62 10 54 C9.34 54 8.68 54 8 54 C7.731875 54.804375 7.46375 55.60875 7.1875 56.4375 C6.795625 57.283125 6.40375 58.12875 6 59 C4.515 59.495 4.515 59.495 3 60 C2.505 61.485 2.505 61.485 2 63 C-4.28875746 69.49838271 -12.65607522 71.18638986 -21.36035156 71.47680664 C-33.19839441 71.580822 -42.73750376 69.82166349 -52 62 C-52 61.34 -52 60.68 -52 60 C-52.99 59.67 -53.98 59.34 -55 59 C-57.07530387 56.07920195 -58 54.62453269 -58 51 C-58.66 51 -59.32 51 -60 51 C-60 50.01 -60 49.02 -60 48 C-60.66 48 -61.32 48 -62 48 C-63.10131479 42.64320487 -63.18349775 37.44305359 -63.1875 32 C-63.19974609 31.1234375 -63.21199219 30.246875 -63.22460938 29.34375 C-63.23745166 23.65889885 -62.57710498 19.15420997 -60 14 C-59.34 14 -58.68 14 -58 14 C-57.67 12.02 -57.34 10.04 -57 8 C-56.34 8 -55.68 8 -55 8 C-54.67 7.01 -54.34 6.02 -54 5 C-53.34 5 -52.68 5 -52 5 C-51.67 4.01 -51.34 3.02 -51 2 C-36.18510748 -10.39415845 -16.01354836 -8.62267989 0 0 Z M-32 15 C-32 15.66 -32 16.32 -32 17 C-32.66 17 -33.32 17 -34 17 C-34.33 18.65 -34.66 20.3 -35 22 C-35.66 22 -36.32 22 -37 22 C-36.67 22.99 -36.34 23.98 -36 25 C-28.08 25 -20.16 25 -12 25 C-12 23.68 -12 22.36 -12 21 C-12.66 21 -13.32 21 -14 21 C-14.020625 20.236875 -14.04125 19.47375 -14.0625 18.6875 C-14.78890921 15.6574609 -14.78890921 15.6574609 -18.1875 14.1875 C-23.41269538 12.55998013 -27.2284383 12.06365434 -32 15 Z " fill="#F8F8F8" transform="translate(654,77)"/>
<path d="M0 0 C1.2684375 1.2375 1.2684375 1.2375 2.5625 2.5 C3.119375 2.974375 3.67625 3.44875 4.25 3.9375 C8.93745998 9.5178095 8.5625 12.83774443 8.5625 20.5 C0.6425 20.5 -7.2775 20.5 -15.4375 20.5 C-16.0975 18.85 -16.7575 17.2 -17.4375 15.5 C-21.11865537 13.04589642 -23.09043598 13.26712157 -27.4375 13.5 C-28.4275 13.83 -29.4175 14.16 -30.4375 14.5 C-30.4375 16.48 -30.4375 18.46 -30.4375 20.5 C-29.12522658 20.89658386 -27.81265324 21.29217515 -26.5 21.6875 C-25.59894531 21.96078125 -24.69789063 22.2340625 -23.76953125 22.515625 C-21.25095565 23.2596825 -18.73086096 23.97512377 -16.19921875 24.671875 C-15.45599365 24.88046143 -14.71276855 25.08904785 -13.94702148 25.30395508 C-12.46842041 25.71853852 -10.98750175 26.12496459 -9.50415039 26.5222168 C-2.56305642 28.48900708 2.88009334 31.93173262 7.5625 37.5 C10.03815022 42.20277956 10.84848017 45.28507429 9.5625 50.5 C9.29759766 51.82451172 9.29759766 51.82451172 9.02734375 53.17578125 C8.5390625 55.6171875 8.05078125 58.05859375 7.5625 60.5 C6.9025 60.5 6.2425 60.5 5.5625 60.5 C5.5625 61.16 5.5625 61.82 5.5625 62.5 C4.12890625 63.90234375 4.12890625 63.90234375 2.125 65.4375 C1.48691406 65.94152344 0.84882812 66.44554687 0.19140625 66.96484375 C-6.97256829 71.14826425 -14.06141174 72.0513123 -22.25 72 C-23.69270264 71.9990332 -23.69270264 71.9990332 -25.16455078 71.99804688 C-32.84354408 71.83739306 -38.75004964 70.45039262 -45.4375 66.5 C-45.4375 65.84 -45.4375 65.18 -45.4375 64.5 C-46.241875 64.231875 -47.04625 63.96375 -47.875 63.6875 C-48.720625 63.295625 -49.56625 62.90375 -50.4375 62.5 C-50.7675 61.51 -51.0975 60.52 -51.4375 59.5 C-52.0975 59.5 -52.7575 59.5 -53.4375 59.5 C-53.9325 57.025 -53.9325 57.025 -54.4375 54.5 C-55.0975 54.5 -55.7575 54.5 -56.4375 54.5 C-56.7675 51.2 -57.0975 47.9 -57.4375 44.5 C-49.1875 44.5 -40.9375 44.5 -32.4375 44.5 C-31.7775 46.48 -31.1175 48.46 -30.4375 50.5 C-29.7775 50.5 -29.1175 50.5 -28.4375 50.5 C-28.4375 51.16 -28.4375 51.82 -28.4375 52.5 C-24.8075 52.5 -21.1775 52.5 -17.4375 52.5 C-16.9425 51.51 -16.9425 51.51 -16.4375 50.5 C-15.7775 50.5 -15.1175 50.5 -14.4375 50.5 C-14.4375 49.18 -14.4375 47.86 -14.4375 46.5 C-15.0975 46.5 -15.7575 46.5 -16.4375 46.5 C-16.7675 45.84 -17.0975 45.18 -17.4375 44.5 C-20.0174598 43.64501332 -22.56661883 42.89333817 -25.1875 42.1875 C-41.45775805 37.58953334 -41.45775805 37.58953334 -47.4375 34.5 C-47.9325 33.015 -47.9325 33.015 -48.4375 31.5 C-49.4275 31.17 -50.4175 30.84 -51.4375 30.5 C-51.4375 29.84 -51.4375 29.18 -51.4375 28.5 C-52.0975 28.5 -52.7575 28.5 -53.4375 28.5 C-54.59902902 25.01541293 -54.57020324 22.23309492 -54.5625 18.5625 C-54.56636719 16.72365234 -54.56636719 16.72365234 -54.5703125 14.84765625 C-54.46417535 12.17237569 -54.23667654 10.03072572 -53.4375 7.5 C-52.7775 7.5 -52.1175 7.5 -51.4375 7.5 C-51.1075 6.18 -50.7775 4.86 -50.4375 3.5 C-49.7775 3.5 -49.1175 3.5 -48.4375 3.5 C-48.1075 2.51 -47.7775 1.52 -47.4375 0.5 C-34.81215031 -8.25461491 -12.46052727 -10.13944866 0 0 Z " fill="#F5F5F5" transform="translate(574.4375,76.5)"/>
<path d="M0 0 C24 0 24 0 26 1 C26 33.67 26 66.34 26 100 C17.42 100 8.84 100 0 100 C0 67 0 34 0 0 Z " fill="#FBFBFB" transform="translate(678,47)"/>
<path d="M0 0 C1.07507813 -0.00128906 2.15015625 -0.00257812 3.2578125 -0.00390625 C4.38960938 -0.00003906 5.52140625 0.00382812 6.6875 0.0078125 C7.81929688 0.00394531 8.95109375 0.00007813 10.1171875 -0.00390625 C11.19226563 -0.00261719 12.26734375 -0.00132813 13.375 0 C14.86580078 0.00169189 14.86580078 0.00169189 16.38671875 0.00341797 C18.6875 0.1328125 18.6875 0.1328125 19.6875 1.1328125 C19.72842937 3.46578683 19.72991723 5.79986475 19.6875 8.1328125 C20.5125 7.3696875 21.3375 6.6065625 22.1875 5.8203125 C28.67956886 0.46853677 34.07779599 0.1328125 42.6875 0.1328125 C42.6875 8.3828125 42.6875 16.6328125 42.6875 25.1328125 C38.7275 25.4628125 34.7675 25.7928125 30.6875 26.1328125 C27.20043315 27.53779662 27.20043315 27.53779662 24.6875 29.1328125 C24.0275 29.1328125 23.3675 29.1328125 22.6875 29.1328125 C22.3575 30.4528125 22.0275 31.7728125 21.6875 33.1328125 C21.0275 33.1328125 20.3675 33.1328125 19.6875 33.1328125 C19.6875 47.3228125 19.6875 61.5128125 19.6875 76.1328125 C11.1075 76.1328125 2.5275 76.1328125 -6.3125 76.1328125 C-6.33505193 66.3712985 -6.35341561 56.60980167 -6.36431217 46.84826756 C-6.36954078 42.31607156 -6.37663801 37.78389423 -6.38793945 33.25170898 C-6.39876914 28.8815842 -6.40477701 24.51147742 -6.40737724 20.14134026 C-6.40923135 18.47030287 -6.41285168 16.79926653 -6.41823006 15.12823677 C-6.42544159 12.79583699 -6.4264909 10.46351257 -6.42602539 8.13110352 C-6.42962067 7.4333934 -6.43321594 6.73568329 -6.43692017 6.01683044 C-6.42395161 0.05043875 -5.83068844 0.00661719 0 0 Z " fill="#FBFBFB" transform="translate(470.3125,70.8671875)"/>
<path d="M0 0 C0.99 0 1.98 0 3 0 C3.495 2.475 3.495 2.475 4 5 C4.66 5 5.32 5 6 5 C6.495 7.97 6.495 7.97 7 11 C7.66 11 8.32 11 9 11 C11.03435531 14.72965139 12 16.66905042 12 21 C12.66 21 13.32 21 14 21 C14.495 23.97 14.495 23.97 15 27 C15.66 27 16.32 27 17 27 C17.495 29.97 17.495 29.97 18 33 C18.66 33 19.32 33 20 33 C20.495 35.97 20.495 35.97 21 39 C21.66 39 22.32 39 23 39 C23.495 41.97 23.495 41.97 24 45 C24.66 45 25.32 45 26 45 C26 46.32 26 47.64 26 49 C26.66 49 27.32 49 28 49 C28.495 51.97 28.495 51.97 29 55 C29.66 55 30.32 55 31 55 C31.495 57.97 31.495 57.97 32 61 C32.66 61 33.32 61 34 61 C34.495 62.98 34.495 62.98 35 65 C33.92456217 65.98783194 32.83926783 66.96493943 31.75 67.9375 C31.14671875 68.48277344 30.5434375 69.02804688 29.921875 69.58984375 C28 71 28 71 25.828125 71.50390625 C25.22484375 71.66761719 24.6215625 71.83132812 24 72 C23.505 73.485 23.505 73.485 23 75 C22.34 75 21.68 75 21 75 C20.505 76.485 20.505 76.485 20 78 C19.34 78 18.68 78 18 78 C17.505 79.98 17.505 79.98 17 82 C16.34 82 15.68 82 15 82 C14.71125 82.5775 14.4225 83.155 14.125 83.75 C12.5625 86.875 12.5625 86.875 11 90 C10.34 90 9.68 90 9 90 C9 90.66 9 91.32 9 92 C8.34 92 7.68 92 7 92 C6.67 93.65 6.34 95.3 6 97 C5.34 97 4.68 97 4 97 C3.67 98.98 3.34 100.96 3 103 C2.34 103 1.68 103 1 103 C0.67 104.98 0.34 106.96 0 109 C-0.66 109 -1.32 109 -2 109 C-1.938125 109.721875 -1.87625 110.44375 -1.8125 111.1875 C-2.04072778 114.61091676 -3.15470059 116.12953426 -5 119 C-6.06993734 121.30855849 -7.0308161 123.64626767 -8 126 C-8.66 126 -9.32 126 -10 126 C-10.33 127.65 -10.66 129.3 -11 131 C-11.66 131 -12.32 131 -13 131 C-13.33 133.31 -13.66 135.62 -14 138 C-14.66 138 -15.32 138 -16 138 C-16.495 140.97 -16.495 140.97 -17 144 C-17.66 144 -18.32 144 -19 144 C-19.0928125 145.5778125 -19.0928125 145.5778125 -19.1875 147.1875 C-20.17762888 151.83348934 -21.38309437 152.98640976 -25 156 C-27.62260292 157.33982257 -30.32945139 158.28760072 -33.1171875 159.2265625 C-33.89256866 159.50092133 -34.66794983 159.77528015 -35.46682739 160.05795288 C-37.93171774 160.92717601 -40.40285316 161.77666228 -42.875 162.625 C-45.33839196 163.48460355 -47.8003314 164.34823186 -50.26174927 165.21347046 C-51.78850557 165.74860563 -53.31665086 166.27980077 -54.84640503 166.80630493 C-60.03780585 168.60469059 -65.05998219 170.63659479 -70.046875 172.94921875 C-75.6698795 175.38671382 -80.94529866 175.30050907 -87 175 C-86.505 174.01 -86.505 174.01 -86 173 C-85.08371826 173.06123047 -84.16743652 173.12246094 -83.22338867 173.18554688 C-65.57640403 173.13034916 -36.27574256 162.95801035 -23.64904785 150.72174072 C-15.70612394 141.12206782 -11.1467672 129.15529093 -7.44897461 117.3762207 C-1.21827231 97.66799593 12.50599762 76.5361751 30 65 C30.66 65 31.32 65 32 65 C22.06141459 43.80516059 11.50566375 22.9173979 1 2 C0.505 1.01 0.505 1.01 0 0 Z " fill="#0D121A" transform="translate(94,5)"/>
<path d="M0 0 C0.99 0.33 1.98 0.66 3 1 C3 33.67 3 66.34 3 100 C-5.58 100 -14.16 100 -23 100 C-23 99.67 -23 99.34 -23 99 C-15.41 99 -7.82 99 0 99 C0 66.33 0 33.66 0 0 Z " fill="#0E0E0E" transform="translate(701,47)"/>
<path d="M0 0 C1.47906892 -0.02689216 2.95827483 -0.04634621 4.4375 -0.0625 C5.26121094 -0.07410156 6.08492188 -0.08570312 6.93359375 -0.09765625 C9 0 9 0 10 1 C10.09492722 3.34253782 10.12559791 5.65546104 10.11352539 7.99829102 C10.11367142 8.72995483 10.11381744 9.46161865 10.1139679 10.2154541 C10.11326867 12.64496784 10.10547585 15.07440583 10.09765625 17.50390625 C10.0957921 19.18399514 10.09436819 20.86408457 10.09336853 22.54417419 C10.08954307 26.97473643 10.07971256 31.4052661 10.06866455 35.83581543 C10.05845103 40.35342976 10.05387104 44.87104934 10.04882812 49.38867188 C10.03809031 58.25913123 10.02049329 67.12955781 10 76 C1.42 76 -7.16 76 -16 76 C-16 75.67 -16 75.34 -16 75 C-8.41 75 -0.82 75 7 75 C7 50.58 7 26.16 7 1 C4.69 1 2.38 1 0 1 C0 0.67 0 0.34 0 0 Z " fill="#2B2B2B" transform="translate(441,71)"/>
<path d="M0 0 C0.66 0 1.32 0 2 0 C2 8.25 2 16.5 2 25 C-1.96 25.33 -5.92 25.66 -10 26 C-13.48706685 27.40498412 -13.48706685 27.40498412 -16 29 C-16.66 29 -17.32 29 -18 29 C-18.33 30.32 -18.66 31.64 -19 33 C-19.66 33 -20.32 33 -21 33 C-21 47.19 -21 61.38 -21 76 C-29.58 76 -38.16 76 -47 76 C-47 75.67 -47 75.34 -47 75 C-39.41 75 -31.82 75 -24 75 C-24.04640625 72.10992187 -24.0928125 69.21984375 -24.140625 66.2421875 C-24.17185104 63.43230952 -24.19612146 60.62245112 -24.21972656 57.8125 C-24.23979906 55.86482034 -24.26706332 53.91720063 -24.30175781 51.96972656 C-24.35046852 49.16456279 -24.37301241 46.36019813 -24.390625 43.5546875 C-24.41127014 42.68883026 -24.43191528 41.82297302 -24.45318604 40.93087769 C-24.45520669 35.44391396 -23.64721595 32.36058092 -20 28 C-14.0231025 22.74757493 -7.58757899 23.92487546 0 24 C0 16.08 0 8.16 0 0 Z " fill="#212121" transform="translate(511,71)"/>
<path d="M0 0 C2 0 2 0 3.625 1.3125 C5 3 5 3 5 6 C5.66 6 6.32 6 7 6 C7.495 8.475 7.495 8.475 8 11 C8.66 11 9.32 11 10 11 C14.36885411 19.73770821 11.91804312 33.88533229 10 43 C9.34 43 8.68 43 8 43 C7.814375 44.1446875 7.814375 44.1446875 7.625 45.3125 C7 48 7 48 5 51 C4.34 51 3.68 51 3 51 C2.67 52.32 2.34 53.64 2 55 C1.34 55 0.68 55 0 55 C-0.33 55.99 -0.66 56.98 -1 58 C-9.94624314 64.684209 -19.57624079 66.25362354 -30.4375 66.3125 C-31.77131714 66.32083862 -31.77131714 66.32083862 -33.13208008 66.3293457 C-39.61484424 66.2567705 -39.61484424 66.2567705 -43 64 C-42.4016333 64.02618408 -41.8032666 64.05236816 -41.18676758 64.0793457 C-26.73755888 64.62745263 -14.8606076 64.83684867 -3.0625 55.375 C4.6280347 47.91107406 8.01654658 39.27923741 8.3425293 28.76831055 C8.49954666 17.4972971 5.90674941 9.6482681 0 0 Z " fill="#191919" transform="translate(781,82)"/>
<path d="M0 0 C0.66 0 1.32 0 2 0 C2 0.66 2 1.32 2 2 C2.66 2 3.32 2 4 2 C4.495 4.475 4.495 4.475 5 7 C5.66 7 6.32 7 7 7 C7.495 10.465 7.495 10.465 8 14 C8.66 14 9.32 14 10 14 C11.14500285 21.80363479 10.79773542 29.16992004 10 37 C9.34 37 8.68 37 8 37 C7.67 39.31 7.34 41.62 7 44 C6.34 44 5.68 44 5 44 C4.67 45.65 4.34 47.3 4 49 C3.34 49 2.68 49 2 49 C2 49.66 2 50.32 2 51 C1.34 51 0.68 51 0 51 C-0.33 51.99 -0.66 52.98 -1 54 C-1.66 54 -2.32 54 -3 54 C-3.33 54.99 -3.66 55.98 -4 57 C-6.07421875 58.31640625 -6.07421875 58.31640625 -8.6875 59.5625 C-9.53699219 59.97628906 -10.38648438 60.39007813 -11.26171875 60.81640625 C-17.81763092 63.65013148 -23.11073558 64.31149252 -30.1875 64.25 C-31.54004883 64.26160156 -31.54004883 64.26160156 -32.91992188 64.2734375 C-33.78552734 64.27085937 -34.65113281 64.26828125 -35.54296875 64.265625 C-36.32696045 64.26336914 -37.11095215 64.26111328 -37.91870117 64.25878906 C-40 64 -40 64 -43 62 C-42.16190796 62.02356567 -42.16190796 62.02356567 -41.30688477 62.04760742 C-38.7255301 62.11074924 -36.1443387 62.14923704 -33.5625 62.1875 C-32.68400391 62.21263672 -31.80550781 62.23777344 -30.90039062 62.26367188 C-20.70253857 62.37656323 -12.15258695 59.1387452 -4 53 C4.20593191 44.67106697 7.26109426 34.33104288 7.32348633 22.92993164 C7.21690392 16.66424684 5.63925746 11.61906427 3 6 C2.69191406 5.33742188 2.38382812 4.67484375 2.06640625 3.9921875 C1.41137459 2.64451471 0.71252835 1.31817745 0 0 Z " fill="#1B1B1B" transform="translate(355,84)"/>
<path d="M0 0 C0.99 0.33 1.98 0.66 3 1 C2.67 2.65 2.34 4.3 2 6 C1.34 6 0.68 6 0 6 C-0.33 7.98 -0.66 9.96 -1 12 C-1.66 12 -2.32 12 -3 12 C-3.33 13.65 -3.66 15.3 -4 17 C-4.66 17 -5.32 17 -6 17 C-6.495 18.485 -6.495 18.485 -7 20 C-7.66 20 -8.32 20 -9 20 C-9.495 21.485 -9.495 21.485 -10 23 C-15.72619601 29.0318076 -23.1751455 30.98168435 -31 33 C-31.93005859 33.29390625 -31.93005859 33.29390625 -32.87890625 33.59375 C-36.29347087 34.24773659 -39.72363884 34.19051238 -43.1875 34.1875 C-44.32336548 34.1884668 -44.32336548 34.1884668 -45.48217773 34.18945312 C-50.9110522 34.13819887 -55.7657379 33.52269443 -61 32 C-61 31.67 -61 31.34 -61 31 C-59.82195801 31.0314209 -59.82195801 31.0314209 -58.62011719 31.06347656 C-54.99687964 31.14758934 -51.37384852 31.19895988 -47.75 31.25 C-45.89761719 31.30027344 -45.89761719 31.30027344 -44.0078125 31.3515625 C-31.30995424 31.48522417 -21.36862849 28.77023306 -12 20 C-11.44699219 19.48824219 -10.89398438 18.97648437 -10.32421875 18.44921875 C-5.31661563 13.23458294 -2.78814147 6.57487262 0 0 Z " fill="#3F3F3F" transform="translate(276,114)"/>
<path d="M0 0 C1.32 0.66 2.64 1.32 4 2 C4 2.66 4 3.32 4 4 C4.66 4 5.32 4 6 4 C6.495 5.98 6.495 5.98 7 8 C7.66 8 8.32 8 9 8 C13.46848322 17.23619522 13.69764768 25.95844814 13 36 C12 37 12 37 9.98155212 37.08229065 C9.09552811 37.06230515 8.20950409 37.04231964 7.29663086 37.02172852 C6.29566879 37.00163223 5.29470673 36.98153595 4.26341248 36.96083069 C3.1748848 36.93379562 2.08635712 36.90676056 0.96484375 36.87890625 C-0.6977372 36.84348976 -0.6977372 36.84348976 -2.39390564 36.80735779 C-5.95022701 36.73050064 -9.50634256 36.64657161 -13.0625 36.5625 C-15.46678665 36.50930138 -17.87108348 36.45656086 -20.27539062 36.40429688 C-26.18372238 36.27485584 -32.09190006 36.1396012 -38 36 C-38 37.98 -38 39.96 -38 42 C-37.34 42 -36.68 42 -36 42 C-35.34 43.65 -34.68 45.3 -34 47 C-37.83325416 45.54600704 -39.28279605 43.6919885 -41 40 C-41 38.35 -41 36.7 -41 35 C-23.84 35 -6.68 35 11 35 C10.12787387 20.0257458 10.12787387 20.0257458 5 7 C4.51853516 5.87851563 4.51853516 5.87851563 4.02734375 4.734375 C3.05012216 2.65277933 3.05012216 2.65277933 0 2 C0 1.34 0 0.68 0 0 Z " fill="#515151" transform="translate(655,79)"/>
<path d="M0 0 C0.99 0 1.98 0 3 0 C3.37125 0.9075 3.7425 1.815 4.125 2.75 C6.80016901 9.00912748 9.85764812 15.17487668 13.18359375 21.11328125 C14 23 14 23 14 27 C14.66 27 15.32 27 16 27 C16.33 28.65 16.66 30.3 17 32 C17.66 32 18.32 32 19 32 C19.33 34.31 19.66 36.62 20 39 C20.66 39 21.32 39 22 39 C23.00696568 41.10084209 24.0053589 43.20579489 25 45.3125 C25.556875 46.48425781 26.11375 47.65601563 26.6875 48.86328125 C28 52 28 52 28 55 C28.66 55 29.32 55 30 55 C30.33 56.98 30.66 58.96 31 61 C31.66 61 32.32 61 33 61 C33.495 64.465 33.495 64.465 34 68 C31.9473395 65.37802771 30.27368148 62.799507 28.78271484 59.82421875 C28.37153412 59.00816162 27.96035339 58.19210449 27.53671265 57.35131836 C27.09920685 56.4722583 26.66170105 55.59319824 26.2109375 54.6875 C25.51685287 53.30220093 25.51685287 53.30220093 24.80874634 51.88891602 C23.82674623 49.9262768 22.84676598 47.96262586 21.86865234 45.99804688 C20.40659721 43.06342167 18.93626079 40.13306496 17.46484375 37.203125 C11.32734268 24.93590269 5.52314485 12.5555711 0 0 Z " fill="#0D121A" transform="translate(129,74)"/>
<path d="M0 0 C4.43726489 1.80777458 7.76383966 4.66029423 10.01953125 8.9296875 C11.76129161 13.14490662 12.1079493 15.50702767 11 20 C10.82339844 20.88300781 10.64679687 21.76601562 10.46484375 22.67578125 C9.9765625 25.1171875 9.48828125 27.55859375 9 30 C8.34 30 7.68 30 7 30 C7 30.66 7 31.32 7 32 C5.56640625 33.40234375 5.56640625 33.40234375 3.5625 34.9375 C2.92441406 35.44152344 2.28632812 35.94554687 1.62890625 36.46484375 C-5.79432416 40.79965735 -12.90744847 41.45457301 -21.375 41.3125 C-22.35855469 41.31572266 -23.34210937 41.31894531 -24.35546875 41.32226562 C-31.598344 41.26777067 -31.598344 41.26777067 -35 39 C-34.39115967 39.02094727 -33.78231934 39.04189453 -33.1550293 39.06347656 C-14.50772867 39.89319407 -14.50772867 39.89319407 2 32.1875 C6.71566992 27.6414585 8.15813074 22.88045349 8.4375 16.4375 C8.29593072 11.50954062 7.26645104 8.81085954 4 5 C3.2575 4.05125 2.515 3.1025 1.75 2.125 C1.1725 1.42375 0.595 0.7225 0 0 Z " fill="#1A1A1A" transform="translate(573,107)"/>
<path d="M0 0 C0.99 0.66 1.98 1.32 3 2 C1.5459375 1.9071875 1.5459375 1.9071875 0.0625 1.8125 C-5.92341136 1.83673446 -11.61496661 3.65093586 -16.375 7.3125 C-19.05797941 10.05935988 -20.52458871 12.47540637 -22 16 C-22.66 16 -23.32 16 -24 16 C-24 23.92 -24 31.84 -24 40 C-28.41896001 33.37155999 -27.99364261 24.11686825 -26.50390625 16.4453125 C-24.15698164 9.6299495 -20.39653296 5.52703452 -14.25 2.125 C-9.52357301 -0.07218803 -5.17079851 -1.00455186 0 0 Z " fill="#232323" transform="translate(235,72)"/>
<path d="M0 0 C-3.79671396 2.4483399 -7.55726949 4.06811853 -11.8046875 5.59375 C-12.76799484 5.94294495 -12.76799484 5.94294495 -13.75076294 6.29919434 C-15.79043092 7.03774017 -17.83252144 7.76926695 -19.875 8.5 C-21.90991603 9.23183455 -23.94425471 9.9652086 -25.97781372 10.70080566 C-27.82768216 11.36938333 -29.67917671 12.03345671 -31.53076172 12.69726562 C-35.77749534 14.29195744 -39.93052334 16.04029995 -44.046875 17.94921875 C-49.6698795 20.38671382 -54.94529866 20.30050907 -61 20 C-60.67 19.34 -60.34 18.68 -60 18 C-59.08774658 18.08644775 -58.17549316 18.17289551 -57.2355957 18.26196289 C-51.53355472 18.24849006 -46.46786073 15.85218491 -41.23046875 13.80859375 C-40.11311844 13.38449722 -38.99576813 12.9604007 -37.84455872 12.52345276 C-34.28793834 11.17235394 -30.73736647 9.80623619 -27.1875 8.4375 C-23.61929384 7.0665892 -20.04992305 5.69910036 -16.47688293 4.34083557 C-14.25590117 3.49613494 -12.0377739 2.64388448 -9.82279968 1.78355408 C-8.82448624 1.40308426 -7.82617279 1.02261444 -6.79760742 0.63061523 C-5.91715256 0.29086166 -5.03669769 -0.04889191 -4.12956238 -0.39894104 C-2 -1 -2 -1 0 0 Z " fill="#0C1729" transform="translate(68,160)"/>
<path d="M0 0 C5.12245577 2.22553297 8.91797054 4.12012003 12 9 C12 9.66 12 10.32 12 11 C12.66 11 13.32 11 14 11 C14.33 12.65 14.66 14.3 15 16 C15.66 16 16.32 16 17 16 C17.33 17.98 17.66 19.96 18 22 C18.66 22 19.32 22 20 22 C20 23.98 20 25.96 20 28 C11.09 28 2.18 28 -7 28 C-7.33 27.34 -7.66 26.68 -8 26 C0.25 26 8.5 26 17 26 C13.67508674 16.02526023 9.8743671 6.93718355 0 2 C0 1.34 0 0.68 0 0 Z " fill="#343434" transform="translate(258,58)"/>
<path d="M0 0 C0.99 0.33 1.98 0.66 3 1 C3 17.17 3 33.34 3 50 C3.66 50 4.32 50 5 50 C4.67 50.99 4.34 51.98 4 53 C0.94339199 49.14601599 -0.12696578 46.34251027 -0.11352539 41.43676758 C-0.11344986 40.51603958 -0.11337433 39.59531158 -0.11329651 38.64668274 C-0.10813522 37.65597275 -0.10297394 36.66526276 -0.09765625 35.64453125 C-0.0962413 34.62775803 -0.09482635 33.6109848 -0.09336853 32.56340027 C-0.08776707 29.31307036 -0.07521432 26.06280912 -0.0625 22.8125 C-0.05748519 20.61002704 -0.05292225 18.40755299 -0.04882812 16.20507812 C-0.03779717 10.80336196 -0.02105762 5.40168588 0 0 Z " fill="#101010" transform="translate(397,71)"/>
<path d="M0 0 C0.99 0.33 1.98 0.66 3 1 C3 1.66 3 2.32 3 3 C2.34 3 1.68 3 1 3 C0.67 5.31 0.34 7.62 0 10 C-0.66 10 -1.32 10 -2 10 C-2.268125 10.804375 -2.53625 11.60875 -2.8125 12.4375 C-3.204375 13.283125 -3.59625 14.12875 -4 15 C-4.99 15.33 -5.98 15.66 -7 16 C-7.495 17.485 -7.495 17.485 -8 19 C-14.41884683 25.63280839 -22.85506486 27.20640393 -31.72045898 27.37011719 C-32.61708252 27.37172852 -33.51370605 27.37333984 -34.4375 27.375 C-35.7524646 27.37741699 -35.7524646 27.37741699 -37.09399414 27.37988281 C-41.34271757 27.30599911 -44.24113998 27.1316686 -48 25 C-47.13217896 25.0314209 -47.13217896 25.0314209 -46.24682617 25.06347656 C-30.59990676 25.85469873 -30.59990676 25.85469873 -16 21 C-15.2678125 20.5875 -14.535625 20.175 -13.78125 19.75 C-6.63829468 15.05910397 -2.97954175 7.81085478 0 0 Z " fill="#212121" transform="translate(664,121)"/>
<path d="M0 0 C0.98484375 0.02707031 1.9696875 0.05414063 2.984375 0.08203125 C3.73203125 0.11683594 4.4796875 0.15164062 5.25 0.1875 C5.25 0.5175 5.25 0.8475 5.25 1.1875 C1.29 1.8475 -2.67 2.5075 -6.75 3.1875 C-7.08 4.5075 -7.41 5.8275 -7.75 7.1875 C-8.41 7.1875 -9.07 7.1875 -9.75 7.1875 C-9.894375 8.156875 -10.03875 9.12625 -10.1875 10.125 C-10.75 13.1875 -10.75 13.1875 -11.75 14.1875 C-11.94989763 16.18740516 -11.94989763 16.18740516 -11.9375 18.5 C-11.95167969 19.27988281 -11.96585938 20.05976562 -11.98046875 20.86328125 C-11.72901379 23.39914058 -10.91775712 24.95126876 -9.75 27.1875 C-10.125 29.4375 -10.125 29.4375 -10.75 31.1875 C-14.92458879 24.2903533 -15.60549816 19.32423804 -14.75 11.1875 C-12.02502006 4.12435199 -7.79484933 -0.27838748 0 0 Z " fill="#0F0F0F" transform="translate(750.75,90.8125)"/>
<path d="M0 0 C0 0.33 0 0.66 0 1 C-0.75925781 1.13277344 -1.51851563 1.26554687 -2.30078125 1.40234375 C-3.29464844 1.57894531 -4.28851563 1.75554687 -5.3125 1.9375 C-6.29863281 2.11152344 -7.28476562 2.28554687 -8.30078125 2.46484375 C-11.08189213 2.95746847 -11.08189213 2.95746847 -14 4 C-14.33 5.65 -14.66 7.3 -15 9 C-15.66 9 -16.32 9 -17 9 C-17.0544452 11.20805524 -17.09299283 13.41650554 -17.125 15.625 C-17.14820313 16.85476562 -17.17140625 18.08453125 -17.1953125 19.3515625 C-17.00201226 22.96241094 -16.28798656 25.64342896 -15 29 C-14.65023242 30.32911682 -14.30903983 31.66082739 -14 33 C-17.84262499 29.41355001 -19.8334581 27.05483317 -20.265625 21.72265625 C-20.26046875 20.51480469 -20.2553125 19.30695313 -20.25 18.0625 C-20.25515625 16.85722656 -20.2603125 15.65195313 -20.265625 14.41015625 C-19.88392946 9.50985912 -18.65441416 6.08620607 -15.0625 2.6875 C-10.48780044 -1.10213459 -5.65465892 -0.55217284 0 0 Z " fill="#131313" transform="translate(329,91)"/>
<path d="M0 0 C0.66 0 1.32 0 2 0 C2 0.66 2 1.32 2 2 C2.66 2 3.32 2 4 2 C4.33 3.65 4.66 5.3 5 7 C5.66 7 6.32 7 7 7 C7.33 9.31 7.66 11.62 8 14 C8.66 14 9.32 14 10 14 C11.14500285 21.80363479 10.79773542 29.16992004 10 37 C8.02 37.495 8.02 37.495 6 38 C6.15855469 37.15824219 6.31710937 36.31648438 6.48046875 35.44921875 C8.0602252 24.96106128 7.52296741 15.62954353 3 6 C2.69191406 5.33742188 2.38382812 4.67484375 2.06640625 3.9921875 C1.41137459 2.64451471 0.71252835 1.31817745 0 0 Z " fill="#121212" transform="translate(355,84)"/>
<path d="M0 0 C0.99 0.33 1.98 0.66 3 1 C2.67 2.65 2.34 4.3 2 6 C1.34 6 0.68 6 0 6 C-0.33 7.98 -0.66 9.96 -1 12 C-1.66 12 -2.32 12 -3 12 C-3.33 13.65 -3.66 15.3 -4 17 C-4.66 17 -5.32 17 -6 17 C-6.33 17.99 -6.66 18.98 -7 20 C-7.66 20 -8.32 20 -9 20 C-9.33 20.99 -9.66 21.98 -10 23 C-11.62332967 24.38576923 -13.28724465 25.72641268 -15 27 C-15.66 26.67 -16.32 26.34 -17 26 C-16.443125 25.46375 -15.88625 24.9275 -15.3125 24.375 C-8.21010816 17.08065163 -4.1852809 9.19165232 0 0 Z " fill="#1B1B1B" transform="translate(276,114)"/>
<path d="M0 0 C3.89272839 0.5767005 6.07702923 2.45176908 9 5 C9.53625 5.45375 10.0725 5.9075 10.625 6.375 C15.36001465 11.97092641 15 15.29470948 15 23 C7.08 23 -0.84 23 -9 23 C-9.66 21.02 -10.32 19.04 -11 17 C-10.34 17 -9.68 17 -9 17 C-8.67 18.32 -8.34 19.64 -8 21 C-1.07 21.33 5.86 21.66 13 22 C10.83451742 12.2553284 8.84531786 8.16610526 1.390625 2.19921875 C0.93171875 1.80347656 0.4728125 1.40773438 0 1 C0 0.67 0 0.34 0 0 Z " fill="#1E1E1E" transform="translate(568,74)"/>
<path d="M0 0 C1.98 0.99 1.98 0.99 4 2 C4 2.66 4 3.32 4 4 C4.66 4 5.32 4 6 4 C6.33 5.32 6.66 6.64 7 8 C7.66 8 8.32 8 9 8 C13.46848322 17.23619522 13.69764768 25.95844814 13 36 C12 37 12 37 8.9375 37.0625 C7.968125 37.041875 6.99875 37.02125 6 37 C6 36.67 6 36.34 6 36 C7.65 36 9.3 36 11 36 C10.86063324 25.3067689 10.02099235 16.68222512 5 7 C4.67902344 6.25363281 4.35804688 5.50726563 4.02734375 4.73828125 C3.05110094 2.6526919 3.05110094 2.6526919 0 2 C0 1.34 0 0.68 0 0 Z " fill="#141414" transform="translate(655,79)"/>
<path d="M0 0 C0.66 0 1.32 0 2 0 C2 0.99 2 1.98 2 3 C2.66 3 3.32 3 4 3 C4.67354499 4.43429001 5.33859701 5.87257057 6 7.3125 C6.37125 8.11300781 6.7425 8.91351563 7.125 9.73828125 C8 12 8 12 8 15 C8.66 15 9.32 15 10 15 C10.33 16.98 10.66 18.96 11 21 C11.66 21 12.32 21 13 21 C14.49297212 23.98594424 14.11755228 26.70853624 14 30 C13.67 30.66 13.34 31.32 13 32 C11.68 31.67 10.36 31.34 9 31 C9.66 30.34 10.32 29.68 11 29 C10.87115692 22.44618177 7.95023272 17.38558457 4.9375 11.6875 C4.00572988 9.90150134 3.07717218 8.11382182 2.15234375 6.32421875 C1.73976318 5.54135498 1.32718262 4.75849121 0.90209961 3.9519043 C0 2 0 2 0 0 Z " fill="#0D0F13" transform="translate(166,148)"/>
<path d="M0 0 C0.33 0 0.66 0 1 0 C1 1.65 1 3.3 1 5 C-0.76997474 5.81436868 -2.54101152 6.6264294 -4.3125 7.4375 C-5.29863281 7.88996094 -6.28476562 8.34242188 -7.30078125 8.80859375 C-11.85828913 10.82022892 -15.21810074 11.10809082 -20.1875 11.0625 C-21.45980469 11.05347656 -22.73210937 11.04445312 -24.04296875 11.03515625 C-25.50669922 11.01775391 -25.50669922 11.01775391 -27 11 C-27 10.67 -27 10.34 -27 10 C-26.01 9.90203125 -25.02 9.8040625 -24 9.703125 C-14.49896323 8.66629835 -6.70314371 7.50752095 0 0 Z " fill="#191919" transform="translate(424,137)"/>
<path d="M0 0 C0.33 0 0.66 0 1 0 C1 7.92 1 15.84 1 24 C-2.02393724 19.46409414 -2.18246882 15.78273404 -2.1875 10.5 C-2.19974609 9.82324219 -2.21199219 9.14648438 -2.22460938 8.44921875 C-2.23559396 4.73642956 -2.11344616 3.17016924 0 0 Z " fill="#151515" transform="translate(210,88)"/>
<path d="M0 0 C5.12245577 2.22553297 8.91797054 4.12012003 12 9 C12 9.66 12 10.32 12 11 C12.66 11 13.32 11 14 11 C14.33 12.65 14.66 14.3 15 16 C15.66 16 16.32 16 17 16 C17.33 17.65 17.66 19.3 18 21 C15 20 15 20 13.89453125 17.9609375 C13.35892578 16.68089844 13.35892578 16.68089844 12.8125 15.375 C10.02401109 9.44946107 5.91205507 4.95602753 0 2 C0 1.34 0 0.68 0 0 Z " fill="#2A2A2A" transform="translate(258,58)"/>
<path d="M0 0 C0 0.33 0 0.66 0 1 C-3.3 1.66 -6.6 2.32 -10 3 C-10 3.66 -10 4.32 -10 5 C-10.66 5 -11.32 5 -12 5 C-12.33 6.65 -12.66 8.3 -13 10 C-13.66 10 -14.32 10 -15 10 C-15 10.66 -15 11.32 -15 12 C-15.66 12 -16.32 12 -17 12 C-16.86210108 9.03517326 -16.71055664 6.78765516 -14.66796875 4.5234375 C-9.35376367 0.10139823 -6.66070735 -0.10743076 0 0 Z " fill="#161616" transform="translate(632,89)"/>
<path d="M0 0 C1.64574566 -0.02688151 3.29161413 -0.04634123 4.9375 -0.0625 C5.85402344 -0.07410156 6.77054687 -0.08570312 7.71484375 -0.09765625 C10 0 10 0 11 1 C11.37004405 6.73568282 11.37004405 6.73568282 11 9 C10.01 9.99 9.02 10.98 8 12 C8 8.37 8 4.74 8 1 C5.36 1 2.72 1 0 1 C0 0.67 0 0.34 0 0 Z " fill="#4B4B4B" transform="translate(479,71)"/>
<path d="M0 0 C0.99 0.33 1.98 0.66 3 1 C3 1.66 3 2.32 3 3 C2.34 3 1.68 3 1 3 C0.67 5.31 0.34 7.62 0 10 C-0.66 10 -1.32 10 -2 10 C-2 10.66 -2 11.32 -2 12 C-3.98 12.99 -3.98 12.99 -6 14 C-4.16508812 9.25981099 -2.08058541 4.63586749 0 0 Z " fill="#232323" transform="translate(664,121)"/>
<path d="M0 0 C0.90492188 0.02320312 1.80984375 0.04640625 2.7421875 0.0703125 C4.10730469 0.09738281 4.10730469 0.09738281 5.5 0.125 C6.19867187 0.14820312 6.89734375 0.17140625 7.6171875 0.1953125 C7.6171875 0.5253125 7.6171875 0.8553125 7.6171875 1.1953125 C5.9775 1.411875 5.9775 1.411875 4.3046875 1.6328125 C0.68595763 2.07819354 0.68595763 2.07819354 -2.3828125 3.1953125 C-2.3828125 5.1753125 -2.3828125 7.1553125 -2.3828125 9.1953125 C-3.3728125 8.5353125 -4.3628125 7.8753125 -5.3828125 7.1953125 C-4.30239292 0.35265516 -4.30239292 0.35265516 0 0 Z " fill="#242424" transform="translate(546.3828125,87.8046875)"/>
<path d="M0 0 C0.33 0 0.66 0 1 0 C1 3.96 1 7.92 1 12 C1.99 12.33 2.98 12.66 4 13 C4.33 15.31 4.66 17.62 5 20 C1.57482917 17.71655278 1.12830009 16.85233888 0 13 C-0.1953125 9.66796875 -0.1953125 9.66796875 -0.125 6.1875 C-0.10695313 5.02605469 -0.08890625 3.86460938 -0.0703125 2.66796875 C-0.04710937 1.78753906 -0.02390625 0.90710938 0 0 Z " fill="#363636" transform="translate(736,102)"/>
<path d="M0 0 C0 0.33 0 0.66 0 1 C-0.75925781 1.13277344 -1.51851563 1.26554687 -2.30078125 1.40234375 C-3.29464844 1.57894531 -4.28851563 1.75554687 -5.3125 1.9375 C-6.29863281 2.11152344 -7.28476562 2.28554687 -8.30078125 2.46484375 C-11.08189213 2.95746847 -11.08189213 2.95746847 -14 4 C-14 4.66 -14 5.32 -14 6 C-16.5 7.625 -16.5 7.625 -19 9 C-15.54399964 -0.33120098 -8.73925634 -0.69976252 0 0 Z " fill="#1D1D1D" transform="translate(329,91)"/>
<path d="M0 0 C0.99 0.66 1.98 1.32 3 2 C2.071875 1.938125 1.14375 1.87625 0.1875 1.8125 C-5.08376961 1.7799613 -9.99975875 3.48093937 -15 5 C-14 2 -14 2 -12 0.8125 C-8.00718476 -0.26888746 -4.11226159 -0.52365878 0 0 Z " fill="#373737" transform="translate(235,72)"/>
<path d="M0 0 C0 0.66 0 1.32 0 2 C-6.52940894 4.95671348 -11.87399867 5.35368021 -19 5 C-18.67 4.34 -18.34 3.68 -18 3 C-17.01 3.061875 -16.02 3.12375 -15 3.1875 C-11.19162334 3.21072181 -8.26390255 2.1540059 -4.796875 0.65625 C-3 0 -3 0 0 0 Z " fill="#0B1C37" transform="translate(26,175)"/>
<path d="M0 0 C0 0.99 0 1.98 0 3 C-0.99 3.33 -1.98 3.66 -3 4 C-3.33 4.99 -3.66 5.98 -4 7 C-5.62332967 8.38576923 -7.28724465 9.72641268 -9 11 C-9.66 10.67 -10.32 10.34 -11 10 C-7.50640535 6.40365256 -3.88901869 3.16548033 0 0 Z " fill="#121212" transform="translate(660,133)"/>
<path d="M0 0 C0.98484375 0.02707031 1.9696875 0.05414063 2.984375 0.08203125 C3.73203125 0.11683594 4.4796875 0.15164062 5.25 0.1875 C5.25 0.5175 5.25 0.8475 5.25 1.1875 C4.58613281 1.29707031 3.92226563 1.40664062 3.23828125 1.51953125 C-1.67999504 2.40266699 -5.61637552 3.21645741 -9.75 6.1875 C-10.74 6.6825 -10.74 6.6825 -11.75 7.1875 C-9.35239168 1.39327989 -6.15973262 -0.21999045 0 0 Z " fill="#1F1F1F" transform="translate(750.75,90.8125)"/>
<path d="M0 0 C0.66 0.33 1.32 0.66 2 1 C-0.33285443 4.49928164 -1.20795069 4.6329098 -5.125 5.6875 C-6.49011719 6.06455078 -6.49011719 6.06455078 -7.8828125 6.44921875 C-8.58148437 6.63097656 -9.28015625 6.81273437 -10 7 C-10.33 6.34 -10.66 5.68 -11 5 C-9.93458984 4.58427734 -9.93458984 4.58427734 -8.84765625 4.16015625 C-7.46900391 3.61681641 -7.46900391 3.61681641 -6.0625 3.0625 C-5.14597656 2.70285156 -4.22945312 2.34320313 -3.28515625 1.97265625 C-1.07581467 1.2003782 -1.07581467 1.2003782 0 0 Z " fill="#242424" transform="translate(774,140)"/>
<path d="M0 0 C3.83870274 1.56391593 6.30972363 3.8734626 9 7 C9.8125 9.8125 9.8125 9.8125 10 12 C7.66294265 9.71327927 5.47249651 7.32933566 3.3125 4.875 C2.68988281 4.17117187 2.06726563 3.46734375 1.42578125 2.7421875 C0 1 0 1 0 0 Z " fill="#252525" transform="translate(573,107)"/>
<path d="M0 0 C0.66 0.33 1.32 0.66 2 1 C-1.32307692 5.8 -1.32307692 5.8 -4.75 6.8125 C-5.4925 6.874375 -6.235 6.93625 -7 7 C-4.66666667 4.66666667 -2.33333333 2.33333333 0 0 Z " fill="#0C1524" transform="translate(124,70)"/>
<path d="M0 0 C-0.33 0.99 -0.66 1.98 -1 3 C-1.66 3 -2.32 3 -3 3 C-3.33 3.99 -3.66 4.98 -4 6 C-4.99 5.67 -5.98 5.34 -7 5 C-2.25 0 -2.25 0 0 0 Z " fill="#0E0E0E" transform="translate(118,77)"/>
<path d="M0 0 C0.33 0 0.66 0 1 0 C1 1.65 1 3.3 1 5 C-0.65 5.33 -2.3 5.66 -4 6 C-2.84826645 3.53199953 -1.95216435 1.95216435 0 0 Z " fill="#393939" transform="translate(424,137)"/>
</svg>
