<?xml version="1.0" encoding="UTF-8"?>
<svg version="1.1" xmlns="http://www.w3.org/2000/svg" width="789" height="177">
<path d="M0 0 C2.8125 0.875 2.8125 0.875 4.8125 1.875 C5.4375 4.9375 5.4375 4.9375 5.8125 7.875 C6.4725 7.875 7.1325 7.875 7.8125 7.875 C8.4833712 9.4982687 9.14907029 11.12367578 9.8125 12.75 C10.18375 13.65492187 10.555 14.55984375 10.9375 15.4921875 C11.8125 17.875 11.8125 17.875 11.8125 19.875 C12.4725 19.875 13.1325 19.875 13.8125 19.875 C15.84685531 23.60465139 16.8125 25.54405042 16.8125 29.875 C17.4725 29.875 18.1325 29.875 18.8125 29.875 C19.3075 32.845 19.3075 32.845 19.8125 35.875 C20.4725 35.875 21.1325 35.875 21.8125 35.875 C22.3075 39.34 22.3075 39.34 22.8125 42.875 C23.4725 42.875 24.1325 42.875 24.8125 42.875 C25.3075 45.35 25.3075 45.35 25.8125 47.875 C26.4725 47.875 27.1325 47.875 27.8125 47.875 C28.3075 51.34 28.3075 51.34 28.8125 54.875 C29.4725 54.875 30.1325 54.875 30.8125 54.875 C33.24410605 58.24183915 33.8125 59.60850364 33.8125 63.875 C34.4725 63.875 35.1325 63.875 35.8125 63.875 C34.4207886 67.19369641 32.94604851 68.77899424 30 70.8125 C25.55093724 74.01001153 21.87105107 77.2871734 18.8125 81.875 C18.1525 81.875 17.4925 81.875 16.8125 81.875 C16.3175 83.36 16.3175 83.36 15.8125 84.875 C15.1525 84.875 14.4925 84.875 13.8125 84.875 C13.8125 85.535 13.8125 86.195 13.8125 86.875 C13.1525 86.875 12.4925 86.875 11.8125 86.875 C11.4825 88.525 11.1525 90.175 10.8125 91.875 C10.1525 91.875 9.4925 91.875 8.8125 91.875 C8.3175 93.855 8.3175 93.855 7.8125 95.875 C7.1525 95.875 6.4925 95.875 5.8125 95.875 C5.709375 96.555625 5.60625 97.23625 5.5 97.9375 C4.66524981 101.50415989 3.31777246 104.53722194 1.8125 107.875 C1.1525 107.875 0.4925 107.875 -0.1875 107.875 C-0.5175 110.185 -0.8475 112.495 -1.1875 114.875 C-1.8475 114.875 -2.5075 114.875 -3.1875 114.875 C-3.5175 116.855 -3.8475 118.835 -4.1875 120.875 C-4.8475 120.875 -5.5075 120.875 -6.1875 120.875 C-6.1875 121.865 -6.1875 122.855 -6.1875 123.875 C-6.8475 123.875 -7.5075 123.875 -8.1875 123.875 C-8.5175 126.185 -8.8475 128.495 -9.1875 130.875 C-9.8475 130.875 -10.5075 130.875 -11.1875 130.875 C-11.5175 132.525 -11.8475 134.175 -12.1875 135.875 C-12.8475 135.875 -13.5075 135.875 -14.1875 135.875 C-14.5175 138.185 -14.8475 140.495 -15.1875 142.875 C-15.8475 142.875 -16.5075 142.875 -17.1875 142.875 C-17.6825 145.845 -17.6825 145.845 -18.1875 148.875 C-18.8475 148.875 -19.5075 148.875 -20.1875 148.875 C-20.125625 149.761875 -20.06375 150.64875 -20 151.5625 C-21.1875 154.875 -21.1875 154.875 -23.03295898 156.03515625 C-31.53840761 159.70536627 -40.15980968 163.04505522 -48.85595703 166.23364258 C-50.57362509 166.86830582 -52.28756789 167.51314588 -53.99755859 168.16821289 C-65.04820944 172.39832487 -74.28246464 174.95696952 -86.1875 173.875 C-85.8575 170.905 -85.5275 167.935 -85.1875 164.875 C-84.5275 164.875 -83.8675 164.875 -83.1875 164.875 C-83.06375 163.9675 -82.94 163.06 -82.8125 162.125 C-82.26640323 159.28529677 -81.61486197 157.34909409 -80.1875 154.875 C-79.5275 154.875 -78.8675 154.875 -78.1875 154.875 C-78.084375 154.00875 -77.98125 153.1425 -77.875 152.25 C-77.15351586 148.70816877 -75.91626739 146.03187958 -74.1875 142.875 C-73.5275 142.875 -72.8675 142.875 -72.1875 142.875 C-71.8575 140.565 -71.5275 138.255 -71.1875 135.875 C-70.5275 135.875 -69.8675 135.875 -69.1875 135.875 C-68.6925 132.905 -68.6925 132.905 -68.1875 129.875 C-67.5275 129.875 -66.8675 129.875 -66.1875 129.875 C-65.8575 127.565 -65.5275 125.255 -65.1875 122.875 C-64.5275 122.875 -63.8675 122.875 -63.1875 122.875 C-63.1875 121.885 -63.1875 120.895 -63.1875 119.875 C-62.5275 119.875 -61.8675 119.875 -61.1875 119.875 C-60.8575 117.895 -60.5275 115.915 -60.1875 113.875 C-59.5275 113.875 -58.8675 113.875 -58.1875 113.875 C-57.8575 111.565 -57.5275 109.255 -57.1875 106.875 C-56.5275 106.875 -55.8675 106.875 -55.1875 106.875 C-54.8575 104.895 -54.5275 102.915 -54.1875 100.875 C-53.5275 100.875 -52.8675 100.875 -52.1875 100.875 C-51.8575 98.565 -51.5275 96.255 -51.1875 93.875 C-50.5275 93.875 -49.8675 93.875 -49.1875 93.875 C-48.8575 91.895 -48.5275 89.915 -48.1875 87.875 C-47.5275 87.875 -46.8675 87.875 -46.1875 87.875 C-46.001875 86.51375 -46.001875 86.51375 -45.8125 85.125 C-45.26640323 82.28529677 -44.61486197 80.34909409 -43.1875 77.875 C-42.5275 77.875 -41.8675 77.875 -41.1875 77.875 C-40.8575 75.565 -40.5275 73.255 -40.1875 70.875 C-39.5275 70.875 -38.8675 70.875 -38.1875 70.875 C-37.8575 69.225 -37.5275 67.575 -37.1875 65.875 C-36.5275 65.875 -35.8675 65.875 -35.1875 65.875 C-35.084375 64.84375 -34.98125 63.8125 -34.875 62.75 C-34.19622203 58.92416055 -33.07591205 56.24129975 -31.1875 52.875 C-30.5275 52.875 -29.8675 52.875 -29.1875 52.875 C-28.8575 50.565 -28.5275 48.255 -28.1875 45.875 C-27.5275 45.875 -26.8675 45.875 -26.1875 45.875 C-26.06375 45.318125 -25.94 44.76125 -25.8125 44.1875 C-25.12773145 41.65385636 -24.19616237 39.29578968 -23.1875 36.875 C-22.5275 36.875 -21.8675 36.875 -21.1875 36.875 C-20.8575 34.565 -20.5275 32.255 -20.1875 29.875 C-19.5275 29.875 -18.8675 29.875 -18.1875 29.875 C-17.8575 27.895 -17.5275 25.915 -17.1875 23.875 C-16.5275 23.875 -15.8675 23.875 -15.1875 23.875 C-14.8575 21.565 -14.5275 19.255 -14.1875 16.875 C-13.5275 16.875 -12.8675 16.875 -12.1875 16.875 C-11.8575 14.895 -11.5275 12.915 -11.1875 10.875 C-10.5275 10.875 -9.8675 10.875 -9.1875 10.875 C-9.125625 9.988125 -9.06375 9.10125 -9 8.1875 C-7.75259005 3.10190559 -5.520007 -0.21647086 0 0 Z " fill="#0461FF" transform="translate(90.1875,3.125)"/>
<path d="M0 0 C0.72703125 0.59554687 1.4540625 1.19109375 2.203125 1.8046875 C2.203125 2.4646875 2.203125 3.1246875 2.203125 3.8046875 C2.863125 3.8046875 3.523125 3.8046875 4.203125 3.8046875 C4.698125 5.7846875 4.698125 5.7846875 5.203125 7.8046875 C5.863125 7.8046875 6.523125 7.8046875 7.203125 7.8046875 C7.698125 10.2796875 7.698125 10.2796875 8.203125 12.8046875 C8.863125 12.8046875 9.523125 12.8046875 10.203125 12.8046875 C10.203125 14.1246875 10.203125 15.4446875 10.203125 16.8046875 C10.863125 16.8046875 11.523125 16.8046875 12.203125 16.8046875 C12.698125 19.7746875 12.698125 19.7746875 13.203125 22.8046875 C3.963125 22.8046875 -5.276875 22.8046875 -14.796875 22.8046875 C-15.291875 20.8246875 -15.291875 20.8246875 -15.796875 18.8046875 C-16.456875 18.8046875 -17.116875 18.8046875 -17.796875 18.8046875 C-19.15188419 17.49338828 -20.48358843 16.15777063 -21.796875 14.8046875 C-26.19447196 11.8729562 -30.58791111 11.86447475 -35.796875 11.8046875 C-40.02626188 12.74455125 -43.12650944 14.56168632 -46.796875 16.8046875 C-47.456875 16.8046875 -48.116875 16.8046875 -48.796875 16.8046875 C-49.126875 18.1246875 -49.456875 19.4446875 -49.796875 20.8046875 C-50.456875 20.8046875 -51.116875 20.8046875 -51.796875 20.8046875 C-52.126875 22.7846875 -52.456875 24.7646875 -52.796875 26.8046875 C-53.456875 26.8046875 -54.116875 26.8046875 -54.796875 26.8046875 C-54.796875 33.7346875 -54.796875 40.6646875 -54.796875 47.8046875 C-54.136875 47.8046875 -53.476875 47.8046875 -52.796875 47.8046875 C-49.921875 54.4296875 -49.921875 54.4296875 -48.796875 57.8046875 C-48.136875 57.8046875 -47.476875 57.8046875 -46.796875 57.8046875 C-46.796875 58.4646875 -46.796875 59.1246875 -46.796875 59.8046875 C-45.848125 60.1140625 -44.899375 60.4234375 -43.921875 60.7421875 C-40.796875 61.8046875 -40.796875 61.8046875 -38.796875 62.8046875 C-32.0877984 63.383248 -26.70249293 63.12659758 -20.796875 59.8046875 C-19.04538335 58.22223475 -19.04538335 58.22223475 -17.796875 56.8046875 C-17.136875 56.8046875 -16.476875 56.8046875 -15.796875 56.8046875 C-15.61125 55.845625 -15.61125 55.845625 -15.421875 54.8671875 C-15.215625 54.1865625 -15.009375 53.5059375 -14.796875 52.8046875 C-12.13509279 51.4737964 -10.10948104 51.69199757 -7.1328125 51.70703125 C-6.01132813 51.71025391 -4.88984375 51.71347656 -3.734375 51.71679688 C-2.55875 51.72517578 -1.383125 51.73355469 -0.171875 51.7421875 C1.01148438 51.74669922 2.19484375 51.75121094 3.4140625 51.75585938 C6.34380007 51.76767283 9.27343772 51.78414492 12.203125 51.8046875 C13.33956466 55.21400647 13.07060264 55.80804206 11.765625 58.9921875 C11.47816406 59.70761719 11.19070313 60.42304687 10.89453125 61.16015625 C10.66636719 61.70285156 10.43820312 62.24554688 10.203125 62.8046875 C9.543125 62.8046875 8.883125 62.8046875 8.203125 62.8046875 C7.97625 63.5059375 7.749375 64.2071875 7.515625 64.9296875 C5.86471212 68.54597285 3.9122415 70.89238726 1.203125 73.8046875 C0.543125 73.8046875 -0.116875 73.8046875 -0.796875 73.8046875 C-1.291875 75.2896875 -1.291875 75.2896875 -1.796875 76.8046875 C-3.91512978 78.14425989 -5.9305108 79.27491789 -8.171875 80.3671875 C-8.80383789 80.6772876 -9.43580078 80.9873877 -10.08691406 81.30688477 C-22.20675585 87.01384506 -35.93939124 87.22249964 -48.796875 83.8046875 C-55.77826558 81.01559598 -63.52818171 77.31877199 -68.796875 71.8046875 C-69.50390625 69.625 -69.50390625 69.625 -69.796875 67.8046875 C-70.456875 67.8046875 -71.116875 67.8046875 -71.796875 67.8046875 C-72.126875 66.4846875 -72.456875 65.1646875 -72.796875 63.8046875 C-73.456875 63.8046875 -74.116875 63.8046875 -74.796875 63.8046875 C-75.126875 61.4946875 -75.456875 59.1846875 -75.796875 56.8046875 C-76.456875 56.8046875 -77.116875 56.8046875 -77.796875 56.8046875 C-78.126875 53.5046875 -78.456875 50.2046875 -78.796875 46.8046875 C-79.456875 46.8046875 -80.116875 46.8046875 -80.796875 46.8046875 C-80.796875 40.8646875 -80.796875 34.9246875 -80.796875 28.8046875 C-80.136875 28.8046875 -79.476875 28.8046875 -78.796875 28.8046875 C-78.466875 25.1746875 -78.136875 21.5446875 -77.796875 17.8046875 C-77.136875 17.8046875 -76.476875 17.8046875 -75.796875 17.8046875 C-75.6421875 16.474375 -75.6421875 16.474375 -75.484375 15.1171875 C-74.77971593 11.722012 -73.8414184 9.58526652 -71.796875 6.8046875 C-71.136875 6.8046875 -70.476875 6.8046875 -69.796875 6.8046875 C-69.549375 6.1859375 -69.301875 5.5671875 -69.046875 4.9296875 C-67.59058861 2.45400063 -66.41874994 1.85343748 -63.796875 0.8046875 C-63.796875 0.1446875 -63.796875 -0.5153125 -63.796875 -1.1953125 C-61.6351789 -2.33081017 -59.4682561 -3.45360222 -57.296875 -4.5703125 C-56.69617188 -4.88742188 -56.09546875 -5.20453125 -55.4765625 -5.53125 C-37.06219491 -14.93433132 -16.52034548 -11.22536295 0 0 Z " fill="#131313" transform="translate(261.796875,61.1953125)"/>
<path d="M0 0 C1.98 0 3.96 0 6 0 C6.33 2.31 6.66 4.62 7 7 C7.66 7 8.32 7 9 7 C9.495 9.97 9.495 9.97 10 13 C10.66 13 11.32 13 12 13 C12.495 15.97 12.495 15.97 13 19 C13.66 19 14.32 19 15 19 C15.495 21.97 15.495 21.97 16 25 C16.66 25 17.32 25 18 25 C20.03435531 28.72965139 21 30.66905042 21 35 C21.66 35 22.32 35 23 35 C23.495 37.475 23.495 37.475 24 40 C24.66 40 25.32 40 26 40 C26.495 43.465 26.495 43.465 27 47 C27.66 47 28.32 47 29 47 C29.495 49.97 29.495 49.97 30 53 C30.66 53 31.32 53 32 53 C32.495 55.97 32.495 55.97 33 59 C33.66 59 34.32 59 35 59 C35.495 61.97 35.495 61.97 36 65 C36.66 65 37.32 65 38 65 C38 66.32 38 67.64 38 69 C38.66 69 39.32 69 40 69 C40.33 70.98 40.66 72.96 41 75 C41.66 75 42.32 75 43 75 C43.33 76.98 43.66 78.96 44 81 C44.66 81 45.32 81 46 81 C46.495 84.465 46.495 84.465 47 88 C47.66 88 48.32 88 49 88 C49.33 89.98 49.66 91.96 50 94 C50.66 94 51.32 94 52 94 C55 99.625 55 99.625 55 103 C49.01282393 105.99358804 41.16586493 104.9075784 34.95458984 103.12695312 C27.9785989 100.76811263 21.14169962 98.05283153 14.30810547 95.31298828 C9.50932915 93.40835219 4.66451195 91.63847284 -0.1875 89.875 C-1.72290348 89.3105679 -3.2580886 88.74554114 -4.79296875 88.1796875 C-5.85128906 87.79039062 -6.90960938 87.40109375 -8 87 C-8 86.34 -8 85.68 -8 85 C-8.66 85 -9.32 85 -10 85 C-10.495 82.03 -10.495 82.03 -11 79 C-11.66 79 -12.32 79 -13 79 C-13.495 76.03 -13.495 76.03 -14 73 C-14.66 73 -15.32 73 -16 73 C-16.495 70.03 -16.495 70.03 -17 67 C-17.66 67 -18.32 67 -19 67 C-19 66.01 -19 65.02 -19 64 C-19.66 64 -20.32 64 -21 64 C-25.79190044 54.95100944 -25.43994663 47.89963305 -24 38 C-23.34 38 -22.68 38 -22 38 C-21.67 35.36 -21.34 32.72 -21 30 C-20.34 30 -19.68 30 -19 30 C-19 29.01 -19 28.02 -19 27 C-18.34 27 -17.68 27 -17 27 C-16.67 24.69 -16.34 22.38 -16 20 C-15.34 20 -14.68 20 -14 20 C-13.67 18.35 -13.34 16.7 -13 15 C-12.34 15 -11.68 15 -11 15 C-10.67 14.01 -10.34 13.02 -10 12 C-9.34 12 -8.68 12 -8 12 C-7.67 10.35 -7.34 8.7 -7 7 C-6.34 7 -5.68 7 -5 7 C-4.67 6.01 -4.34 5.02 -4 4 C-3.34 4 -2.68 4 -2 4 C-2 3.34 -2 2.68 -2 2 C-1.34 2 -0.68 2 0 2 C0 1.34 0 0.68 0 0 Z " fill="#0964FF" transform="translate(123,73)"/>
<path d="M0 0 C3.95827235 -0.05785647 7.9164367 -0.09354717 11.875 -0.125 C13.00292969 -0.14175781 14.13085938 -0.15851563 15.29296875 -0.17578125 C16.36933594 -0.18222656 17.44570313 -0.18867187 18.5546875 -0.1953125 C19.54968262 -0.20578613 20.54467773 -0.21625977 21.56982422 -0.22705078 C24 0 24 0 26 2 C25.34 2 24.68 2 24 2 C24.09380036 7.72944828 24.19995345 13.45848721 24.31738281 19.1875 C24.35558233 21.13502798 24.39045075 23.08262435 24.421875 25.03027344 C24.46772196 27.83553446 24.52568366 30.64032839 24.5859375 33.4453125 C24.59748871 34.31116974 24.60903992 35.17702698 24.62094116 36.06912231 C24.73493852 40.77594804 25.28662696 44.55381843 27 49 C27 49.66 27 50.32 27 51 C27.66 51 28.32 51 29 51 C29.44601562 51.47824219 29.89203125 51.95648438 30.3515625 52.44921875 C33.28738071 55.21111408 37.11465981 55.01363277 41 55 C43.92876584 54.35062487 43.92876584 54.35062487 46 53 C46.495 52.01 46.495 52.01 47 51 C47.66 51 48.32 51 49 51 C49.98979664 45.27067519 50.11595711 39.75144179 50.0625 33.9453125 C50.05871338 33.00315887 50.05492676 32.06100525 50.05102539 31.09030151 C50.03887293 28.10181971 50.02022468 25.1134374 50 22.125 C49.97351076 18.16927377 49.95349619 14.21359344 49.9375 10.2578125 C49.92920166 9.34436066 49.92090332 8.43090881 49.91235352 7.48977661 C49.90382795 5.32633727 49.94652503 3.16279516 50 1 C51.74545605 -0.74545605 54.16124217 -0.1302316 56.53125 -0.1328125 C57.65144531 -0.13410156 58.77164063 -0.13539062 59.92578125 -0.13671875 C61.10527344 -0.13285156 62.28476562 -0.12898438 63.5 -0.125 C65.26923828 -0.13080078 65.26923828 -0.13080078 67.07421875 -0.13671875 C68.75451172 -0.13478516 68.75451172 -0.13478516 70.46875 -0.1328125 C71.50451172 -0.13168457 72.54027344 -0.13055664 73.60742188 -0.12939453 C76 0 76 0 77 1 C77.09439978 3.26991887 77.11742226 5.54281967 77.11352539 7.81469727 C77.11367142 8.52685394 77.11381744 9.23901062 77.1139679 9.9727478 C77.1132687 12.33733112 77.10547606 14.70183661 77.09765625 17.06640625 C77.09579209 18.70165463 77.09436818 20.33690357 77.09336853 21.97215271 C77.08954318 26.28434785 77.07971275 30.59650952 77.06866455 34.90869141 C77.0584508 39.30565946 77.05387099 43.70263289 77.04882812 48.09960938 C77.03809049 56.73308831 77.02101387 65.36654 77 74 C74.46553127 75.26723437 72.67773046 75.12941328 69.84375 75.1328125 C68.31041016 75.13474609 68.31041016 75.13474609 66.74609375 75.13671875 C65.67488281 75.13285156 64.60367188 75.12898438 63.5 75.125 C61.89318359 75.13080078 61.89318359 75.13080078 60.25390625 75.13671875 C59.23167969 75.13542969 58.20945312 75.13414062 57.15625 75.1328125 C56.21587891 75.13168457 55.27550781 75.13055664 54.30664062 75.12939453 C52 75 52 75 50 74 C50.33 72.35 50.66 70.7 51 69 C49.89591797 69.63228516 49.89591797 69.63228516 48.76953125 70.27734375 C47.79371094 70.82519531 46.81789063 71.37304688 45.8125 71.9375 C44.84957031 72.48277344 43.88664062 73.02804688 42.89453125 73.58984375 C34.69306144 77.58543161 26.01838051 76.44092807 17.53125 73.92578125 C14.16562045 72.6948334 11.74587188 71.30059536 9 69 C9 68.34 9 67.68 9 67 C8.34 67 7.68 67 7 67 C6.67 65.68 6.34 64.36 6 63 C5.34 63 4.68 63 4 63 C3.67 61.02 3.34 59.04 3 57 C2.34 57 1.68 57 1 57 C0.10912205 50.16582552 -0.13308006 43.50841551 -0.09765625 36.62109375 C-0.0962413 35.56841812 -0.09482635 34.51574249 -0.09336853 33.4311676 C-0.08781296 30.09991501 -0.07526888 26.76873196 -0.0625 23.4375 C-0.05747925 21.1660166 -0.05291735 18.89453214 -0.04882812 16.62304688 C-0.03785812 11.0820079 -0.02116483 5.54100892 0 0 Z " fill="#121212" transform="translate(371,71)"/>
<path d="M0 0 C2.08979154 1.83696232 3.03774863 3.25881491 4.06640625 5.81640625 C4.72640625 5.81640625 5.38640625 5.81640625 6.06640625 5.81640625 C6.56140625 8.29140625 6.56140625 8.29140625 7.06640625 10.81640625 C7.72640625 10.81640625 8.38640625 10.81640625 9.06640625 10.81640625 C9.19917969 11.52667969 9.33195313 12.23695312 9.46875 12.96875 C9.73365234 14.34740234 9.73365234 14.34740234 10.00390625 15.75390625 C10.26494141 17.12869141 10.26494141 17.12869141 10.53125 18.53125 C10.84355613 20.76930469 10.84355613 20.76930469 12.06640625 21.81640625 C12.06640625 26.43640625 12.06640625 31.05640625 12.06640625 35.81640625 C-13.17859375 36.31140625 -13.17859375 36.31140625 -38.93359375 36.81640625 C-38.93359375 38.79640625 -38.93359375 40.77640625 -38.93359375 42.81640625 C-38.27359375 42.81640625 -37.61359375 42.81640625 -36.93359375 42.81640625 C-36.89234375 43.43515625 -36.85109375 44.05390625 -36.80859375 44.69140625 C-36.09179366 47.08550107 -36.09179366 47.08550107 -33.37109375 48.12890625 C-29.04289331 48.99454634 -26.25836815 48.73807948 -21.93359375 47.81640625 C-20.07558136 46.3794867 -20.07558136 46.3794867 -18.93359375 44.81640625 C-18.27359375 44.81640625 -17.61359375 44.81640625 -16.93359375 44.81640625 C-16.60359375 43.82640625 -16.27359375 42.83640625 -15.93359375 41.81640625 C-7.68359375 41.81640625 0.56640625 41.81640625 9.06640625 41.81640625 C10.11090536 44.94990357 10.0006427 45.80608881 9.06640625 48.81640625 C8.40640625 48.81640625 7.74640625 48.81640625 7.06640625 48.81640625 C6.73640625 50.46640625 6.40640625 52.11640625 6.06640625 53.81640625 C5.40640625 53.81640625 4.74640625 53.81640625 4.06640625 53.81640625 C3.73640625 55.13640625 3.40640625 56.45640625 3.06640625 57.81640625 C2.40640625 57.81640625 1.74640625 57.81640625 1.06640625 57.81640625 C0.57140625 59.30140625 0.57140625 59.30140625 0.06640625 60.81640625 C-10.66033766 68.2252118 -21.12000482 69.87993413 -33.93359375 68.81640625 C-40.04090585 67.51411176 -46.20962301 66.11195005 -50.93359375 61.81640625 C-50.93359375 61.15640625 -50.93359375 60.49640625 -50.93359375 59.81640625 C-52.14015625 59.44515625 -52.14015625 59.44515625 -53.37109375 59.06640625 C-55.93359375 57.81640625 -55.93359375 57.81640625 -56.74609375 55.69140625 C-56.80796875 55.07265625 -56.86984375 54.45390625 -56.93359375 53.81640625 C-57.59359375 53.81640625 -58.25359375 53.81640625 -58.93359375 53.81640625 C-59.26359375 51.83640625 -59.59359375 49.85640625 -59.93359375 47.81640625 C-60.59359375 47.81640625 -61.25359375 47.81640625 -61.93359375 47.81640625 C-66.8906129 39.22423972 -65.94420793 26.26629292 -63.93359375 16.81640625 C-62.87109375 13.87890625 -62.87109375 13.87890625 -61.93359375 11.81640625 C-61.27359375 11.81640625 -60.61359375 11.81640625 -59.93359375 11.81640625 C-59.60359375 10.16640625 -59.27359375 8.51640625 -58.93359375 6.81640625 C-58.27359375 6.81640625 -57.61359375 6.81640625 -56.93359375 6.81640625 C-56.60359375 5.49640625 -56.27359375 4.17640625 -55.93359375 2.81640625 C-55.27359375 2.81640625 -54.61359375 2.81640625 -53.93359375 2.81640625 C-53.60359375 1.82640625 -53.27359375 0.83640625 -52.93359375 -0.18359375 C-38.12759627 -13.16853272 -14.90260306 -10.42482562 0 0 Z M-35.93359375 13.81640625 C-36.89403477 15.89331203 -36.89403477 15.89331203 -36.93359375 17.81640625 C-37.59359375 17.81640625 -38.25359375 17.81640625 -38.93359375 17.81640625 C-38.93359375 19.46640625 -38.93359375 21.11640625 -38.93359375 22.81640625 C-30.68359375 22.81640625 -22.43359375 22.81640625 -13.93359375 22.81640625 C-13.39005882 17.85717137 -13.39005882 17.85717137 -16.24609375 15.12890625 C-20.26630536 11.6696544 -22.48717277 10.41371471 -27.86328125 10.5625 C-31.05701445 10.95418426 -33.29444057 12.01405774 -35.93359375 13.81640625 Z " fill="#121212" transform="translate(652.93359375,78.18359375)"/>
<path d="M0 0 C0.886875 0.78375 1.77375 1.5675 2.6875 2.375 C2.6875 3.035 2.6875 3.695 2.6875 4.375 C3.326875 4.643125 3.96625 4.91125 4.625 5.1875 C6.6875 6.375 6.6875 6.375 7.6875 9.375 C8.3475 9.375 9.0075 9.375 9.6875 9.375 C10.1825 11.85 10.1825 11.85 10.6875 14.375 C11.3475 14.375 12.0075 14.375 12.6875 14.375 C15.27128379 26.09430506 15.27128379 36.65569494 12.6875 48.375 C12.0275 48.375 11.3675 48.375 10.6875 48.375 C10.5946875 49.426875 10.5946875 49.426875 10.5 50.5 C9.37969429 54.46415867 7.52683474 56.39716113 4.6875 59.375 C4.0275 59.375 3.3675 59.375 2.6875 59.375 C2.1925 60.86 2.1925 60.86 1.6875 62.375 C-6.76633176 69.78905566 -17.8832041 70.91163672 -28.6640625 70.66015625 C-37.58664165 69.96278122 -44.76910953 67.08729084 -52.3125 62.375 C-52.3125 61.715 -52.3125 61.055 -52.3125 60.375 C-53.3025 60.045 -54.2925 59.715 -55.3125 59.375 C-55.3125 58.715 -55.3125 58.055 -55.3125 57.375 C-55.9725 57.375 -56.6325 57.375 -57.3125 57.375 C-57.6425 56.055 -57.9725 54.735 -58.3125 53.375 C-58.9725 53.375 -59.6325 53.375 -60.3125 53.375 C-60.6425 51.065 -60.9725 48.755 -61.3125 46.375 C-61.9725 46.375 -62.6325 46.375 -63.3125 46.375 C-64.10559907 41.49051686 -64.44775723 36.83949764 -64.4375 31.875 C-64.44007813 30.6271875 -64.44265625 29.379375 -64.4453125 28.09375 C-64.3141814 24.4220793 -63.90028853 20.99503093 -63.3125 17.375 C-62.6525 17.375 -61.9925 17.375 -61.3125 17.375 C-60.9825 15.395 -60.6525 13.415 -60.3125 11.375 C-59.6525 11.375 -58.9925 11.375 -58.3125 11.375 C-58.065 10.6325 -57.8175 9.89 -57.5625 9.125 C-54.11108892 1.53189562 -45.08925284 -3.15270652 -37.625 -6.0625 C-24.96349619 -8.3716677 -10.87005627 -7.32641793 0 0 Z M-34.3125 16.375 C-35.35539755 18.44390419 -35.35539755 18.44390419 -35.3125 20.375 C-35.9725 20.375 -36.6325 20.375 -37.3125 20.375 C-39.80325506 27.99378017 -39.86702381 35.71142858 -37.3125 43.375 C-36.6525 43.375 -35.9925 43.375 -35.3125 43.375 C-35.20808594 44.30505859 -35.20808594 44.30505859 -35.1015625 45.25390625 C-34.50477104 47.55528705 -34.50477104 47.55528705 -32.2734375 48.52734375 C-27.78240528 49.8909351 -25.13221608 50.5900075 -20.5 49.375 C-15.95700695 46.52449456 -12.24725332 43.46782601 -10.3125 38.375 C-10.07077293 34.86630586 -10.07077293 34.86630586 -10.1875 31.125 C-10.21457031 29.23007813 -10.21457031 29.23007813 -10.2421875 27.296875 C-10.26539063 26.33265625 -10.28859375 25.3684375 -10.3125 24.375 C-10.9725 24.375 -11.6325 24.375 -12.3125 24.375 C-12.374375 23.818125 -12.43625 23.26125 -12.5 22.6875 C-13.96533461 18.51693226 -17.01240876 16.04090039 -20.875 14.0625 C-26.11402851 12.58482529 -29.64771807 13.9105869 -34.3125 16.375 Z " fill="#121212" transform="translate(774.3125,76.625)"/>
<path d="M0 0 C0 0.66 0 1.32 0 2 C0.99 2.33 1.98 2.66 3 3 C3 3.66 3 4.32 3 5 C3.66 5 4.32 5 5 5 C5.495 6.98 5.495 6.98 6 9 C6.66 9 7.32 9 8 9 C13.57568601 19.62865146 13.84715147 33.25311044 11.09375 44.80078125 C10.18721904 47.296979 9.23268689 49.65019062 8 52 C7.34 52 6.68 52 6 52 C5.67 53.32 5.34 54.64 5 56 C4.34 56 3.68 56 3 56 C2.505 57.485 2.505 57.485 2 59 C0.6846659 59.70151152 -0.65117592 60.36525925 -2 61 C-2.43828125 61.47179687 -2.8765625 61.94359375 -3.328125 62.4296875 C-5.36784704 64.34550119 -7.27016365 65.11948566 -9.875 66.125 C-11.13957031 66.62386719 -11.13957031 66.62386719 -12.4296875 67.1328125 C-24.08273802 71.06438882 -36.83771174 69.78823676 -48 65 C-50.69719501 63.50651186 -52.67094229 62.05823705 -55 60 C-55 59.34 -55 58.68 -55 58 C-55.639375 57.7525 -56.27875 57.505 -56.9375 57.25 C-59 56 -59 56 -59.75 53.875 C-59.87375 52.946875 -59.87375 52.946875 -60 52 C-60.66 52 -61.32 52 -62 52 C-65.42803993 44.82750067 -66.60852737 38.85441225 -66.4375 30.9375 C-66.44458984 30.00873047 -66.45167969 29.07996094 -66.45898438 28.12304688 C-66.39574999 21.19158515 -65.10726176 15.21452353 -62 9 C-61.34 9 -60.68 9 -60 9 C-59.9175 8.38125 -59.835 7.7625 -59.75 7.125 C-59 5 -59 5 -57 3.9375 C-56.34 3.628125 -55.68 3.31875 -55 3 C-54.67 2.01 -54.34 1.02 -54 0 C-38.84429786 -13.29163182 -15.71354826 -9.60272393 0 0 Z M-37 16 C-38.93211944 17.82437884 -38.93211944 17.82437884 -40 20 C-40.391875 20.70125 -40.78375 21.4025 -41.1875 22.125 C-42.80137176 27.83562314 -42.56982253 33.17056979 -40.8125 38.8125 C-38.41244737 43.03328221 -35.83937109 45.82484625 -31.75 48.4375 C-27.5446263 49.29769007 -23.97709313 48.54904896 -20 47 C-17.34380635 44.78650529 -15.54030258 43.08060516 -14 40 C-13.95977609 37.6670134 -13.95679753 35.33293334 -14 33 C-13.34 33 -12.68 33 -12 33 C-12 31.02 -12 29.04 -12 27 C-12.66 27 -13.32 27 -14 27 C-14.01417969 26.39671875 -14.02835937 25.7934375 -14.04296875 25.171875 C-14.31640177 19.85675686 -14.31640177 19.85675686 -17.25 15.5625 C-24.87120187 11.23227167 -29.64594524 11.43703639 -37 16 Z " fill="#121212" transform="translate(349,78)"/>
<path d="M0 0 C0.7950293 0.00418945 1.59005859 0.00837891 2.40917969 0.01269531 C10.84381507 0.17536575 17.46408187 2.01792405 24.125 7.3125 C24.125 7.9725 24.125 8.6325 24.125 9.3125 C24.785 9.3125 25.445 9.3125 26.125 9.3125 C26.125 9.9725 26.125 10.6325 26.125 11.3125 C26.785 11.3125 27.445 11.3125 28.125 11.3125 C30.63464189 15.91156468 32.73533325 19.9870544 33.125 25.3125 C32.125 26.3125 32.125 26.3125 29.99194336 26.42602539 C29.07550049 26.42078857 28.15905762 26.41555176 27.21484375 26.41015625 C26.22548828 26.40693359 25.23613281 26.40371094 24.21679688 26.40039062 C23.17587891 26.39201172 22.13496094 26.38363281 21.0625 26.375 C20.01771484 26.37048828 18.97292969 26.36597656 17.89648438 26.36132812 C15.3059334 26.34949913 12.71549441 26.33301689 10.125 26.3125 C9.83625 25.673125 9.5475 25.03375 9.25 24.375 C8.29676549 22.16043921 8.29676549 22.16043921 6.125 21.3125 C6.125 20.6525 6.125 19.9925 6.125 19.3125 C2.495 19.3125 -1.135 19.3125 -4.875 19.3125 C-5.205 19.9725 -5.535 20.6325 -5.875 21.3125 C-6.535 21.3125 -7.195 21.3125 -7.875 21.3125 C-7.875 22.6325 -7.875 23.9525 -7.875 25.3125 C-7.215 25.3125 -6.555 25.3125 -5.875 25.3125 C-5.545 25.9725 -5.215 26.6325 -4.875 27.3125 C-3.00236951 28.0896232 -3.00236951 28.0896232 -0.71875 28.6796875 C0.13976562 28.92589844 0.99828125 29.17210938 1.8828125 29.42578125 C2.78773438 29.67714844 3.69265625 29.92851563 4.625 30.1875 C22.89064119 35.27924953 22.89064119 35.27924953 29.125 41.3125 C29.125 41.9725 29.125 42.6325 29.125 43.3125 C29.785 43.3125 30.445 43.3125 31.125 43.3125 C33.24230842 49.66442526 33.52087344 58.68962238 31.1015625 64.96875 C26.64671186 71.36798296 19.10444045 75.47737104 11.53515625 77.02734375 C-0.58086939 78.46084435 -12.81515878 77.69246792 -23.1875 70.6875 C-24.074375 69.90375 -24.96125 69.12 -25.875 68.3125 C-25.875 67.6525 -25.875 66.9925 -25.875 66.3125 C-26.865 65.9825 -27.855 65.6525 -28.875 65.3125 C-28.875 64.3225 -28.875 63.3325 -28.875 62.3125 C-29.535 62.3125 -30.195 62.3125 -30.875 62.3125 C-31.38115298 61.04410474 -31.87969099 59.77266898 -32.375 58.5 C-32.6534375 57.79230469 -32.931875 57.08460937 -33.21875 56.35546875 C-33.875 54.3125 -33.875 54.3125 -33.875 51.3125 C-28.26694023 50.2962744 -23.11002748 50.35232886 -17.4375 50.75 C-16.61056641 50.80220703 -15.78363281 50.85441406 -14.93164062 50.90820312 C-12.91234522 51.03659763 -10.89360371 51.17365424 -8.875 51.3125 C-8.75125 52.11042969 -8.6275 52.90835938 -8.5 53.73046875 C-8.15137402 56.4570838 -8.15137402 56.4570838 -5.875 57.625 C-1.42409226 58.64499969 3.92849116 59.41075442 8.125 57.3125 C8.125 55.3325 8.125 53.3525 8.125 51.3125 C2.12824929 49.01170585 -3.86221652 46.99801395 -10.0625 45.3125 C-24.75677056 41.17621574 -24.75677056 41.17621574 -28.875 34.3125 C-28.875 32.9925 -28.875 31.6725 -28.875 30.3125 C-29.535 30.3125 -30.195 30.3125 -30.875 30.3125 C-30.875 26.3525 -30.875 22.3925 -30.875 18.3125 C-30.215 18.3125 -29.555 18.3125 -28.875 18.3125 C-28.545 16.0025 -28.215 13.6925 -27.875 11.3125 C-27.215 11.3125 -26.555 11.3125 -25.875 11.3125 C-25.79507813 10.70664063 -25.71515625 10.10078125 -25.6328125 9.4765625 C-24.62301054 6.59290122 -23.42239974 6.09164223 -20.75 4.6875 C-20.00492188 4.28273438 -19.25984375 3.87796875 -18.4921875 3.4609375 C-12.29484262 0.74150557 -6.67190879 -0.04783739 0 0 Z " fill="#161616" transform="translate(547.875,69.6875)"/>
<path d="M0 0 C0.87914062 -0.00128906 1.75828125 -0.00257812 2.6640625 -0.00390625 C4.03691406 0.00189453 4.03691406 0.00189453 5.4375 0.0078125 C6.35273437 0.00394531 7.26796875 0.00007813 8.2109375 -0.00390625 C9.09007812 -0.00261719 9.96921875 -0.00132813 10.875 0 C11.67808594 0.00112793 12.48117187 0.00225586 13.30859375 0.00341797 C15.4375 0.1328125 15.4375 0.1328125 18.4375 1.1328125 C18.46062121 13.8931512 18.47841395 26.65348495 18.48931217 39.41384029 C18.49454149 45.33831965 18.50164001 51.26278472 18.51293945 57.18725586 C18.52376661 62.89953821 18.52977647 68.61180678 18.53237724 74.32409859 C18.5342318 76.50869527 18.537853 78.69329115 18.54323006 80.877882 C18.55043821 83.92633599 18.55149104 86.97473229 18.55102539 90.02319336 C18.55462067 90.93597046 18.55821594 91.84874756 18.56192017 92.78918457 C18.55155216 99.01876034 18.55155216 99.01876034 17.4375 100.1328125 C15.66890807 100.23227703 13.89638549 100.26361467 12.125 100.265625 C11.04992187 100.26691406 9.97484375 100.26820313 8.8671875 100.26953125 C7.73539063 100.26566406 6.60359375 100.26179688 5.4375 100.2578125 C4.30570313 100.26167969 3.17390625 100.26554687 2.0078125 100.26953125 C0.93273437 100.26824219 -0.14234375 100.26695312 -1.25 100.265625 C-2.24386719 100.26449707 -3.23773437 100.26336914 -4.26171875 100.26220703 C-6.5625 100.1328125 -6.5625 100.1328125 -7.5625 99.1328125 C-7.65780981 96.08878828 -7.68801639 93.06749542 -7.67602539 90.02319336 C-7.67617142 89.06719742 -7.67631744 88.11120148 -7.6764679 87.12623596 C-7.67576835 83.95002005 -7.66797403 80.77386198 -7.66015625 77.59765625 C-7.65829222 75.40190157 -7.65686825 73.20614648 -7.65586853 71.01039124 C-7.65204219 65.21860617 -7.64221091 59.426846 -7.63116455 53.6350708 C-7.62095293 47.73002459 -7.61637145 41.82497437 -7.61132812 35.91992188 C-7.60058875 24.32420778 -7.58351093 12.72851221 -7.5625 1.1328125 C-4.72267118 0.18620289 -2.94394671 0.00413476 0 0 Z " fill="#171717" transform="translate(681.5625,45.8671875)"/>
<path d="M0 0 C0 8.25 0 16.5 0 25 C-3.96 25.33 -7.92 25.66 -12 26 C-15.48706685 27.40498412 -15.48706685 27.40498412 -18 29 C-18.66 29 -19.32 29 -20 29 C-20.33 30.98 -20.66 32.96 -21 35 C-21.66 35 -22.32 35 -23 35 C-23 48.53 -23 62.06 -23 76 C-30.92 76 -38.84 76 -47 76 C-47 51.25 -47 26.5 -47 1 C-39.08 1 -31.16 1 -23 1 C-23 3.97 -23 6.94 -23 10 C-22.05125 9.175 -21.1025 8.35 -20.125 7.5 C-17.25 5 -17.25 5 -15 5 C-15 4.34 -15 3.68 -15 3 C-13.6293189 2.48827906 -12.25315925 1.99122508 -10.875 1.5 C-9.72644531 1.08234375 -9.72644531 1.08234375 -8.5546875 0.65625 C-6 0 -6 0 0 0 Z " fill="#111111" transform="translate(509,70)"/>
<path d="M0 0 C0.66 0 1.32 0 2 0 C4.43160605 3.36683915 5 4.73350364 5 9 C5.66 9 6.32 9 7 9 C5.6082886 12.31869641 4.13354851 13.90399424 1.1875 15.9375 C-3.26156276 19.13501153 -6.94144893 22.4121734 -10 27 C-10.66 27 -11.32 27 -12 27 C-12.495 28.485 -12.495 28.485 -13 30 C-13.66 30 -14.32 30 -15 30 C-15 30.66 -15 31.32 -15 32 C-15.66 32 -16.32 32 -17 32 C-17.33 33.65 -17.66 35.3 -18 37 C-18.66 37 -19.32 37 -20 37 C-20.33 38.32 -20.66 39.64 -21 41 C-21.66 41 -22.32 41 -23 41 C-23.103125 41.680625 -23.20625 42.36125 -23.3125 43.0625 C-24.14725019 46.62915989 -25.49472754 49.66222194 -27 53 C-27.66 53 -28.32 53 -29 53 C-29.33 55.31 -29.66 57.62 -30 60 C-30.66 60 -31.32 60 -32 60 C-32.33 61.98 -32.66 63.96 -33 66 C-33.66 66 -34.32 66 -35 66 C-35 66.99 -35 67.98 -35 69 C-35.66 69 -36.32 69 -37 69 C-37.33 71.31 -37.66 73.62 -38 76 C-38.66 76 -39.32 76 -40 76 C-40.33 77.65 -40.66 79.3 -41 81 C-41.66 81 -42.32 81 -43 81 C-43.33 83.31 -43.66 85.62 -44 88 C-44.66 88 -45.32 88 -46 88 C-46.33 89.98 -46.66 91.96 -47 94 C-47.66 94 -48.32 94 -49 94 C-48.938125 94.886875 -48.87625 95.77375 -48.8125 96.6875 C-50 100 -50 100 -51.82348633 101.16015625 C-60.48728928 104.92416758 -69.32779349 108.17457833 -78.21777344 111.35864258 C-80.89339092 112.31910174 -83.56387238 113.29300095 -86.234375 114.26757812 C-87.94501802 114.88363082 -89.65594562 115.49889401 -91.3671875 116.11328125 C-92.15995087 116.40382889 -92.95271423 116.69437653 -93.76950073 116.99372864 C-97.63382702 118.36402358 -100.83307379 119.38348175 -105 119 C-102.48319457 117.32212971 -100.57744563 116.36362045 -97.79150391 115.3359375 C-96.94697662 115.02221191 -96.10244934 114.70848633 -95.23233032 114.38525391 C-94.32292694 114.05187012 -93.41352356 113.71848633 -92.4765625 113.375 C-91.53823578 113.02743652 -90.59990906 112.67987305 -89.63314819 112.32177734 C-86.63177112 111.21085597 -83.62846093 110.10527362 -80.625 109 C-77.62910118 107.89361476 -74.63360536 106.78614628 -71.63827515 105.67822266 C-69.77445919 104.98925576 -67.91023743 104.30138544 -66.04556274 103.61474609 C-64.38609725 103.00285441 -62.72963577 102.38272021 -61.07707214 101.75242615 C-59 101 -59 101 -56.18334961 100.31274414 C-52.43955113 98.06177641 -51.11391949 94.21980928 -49.27734375 90.37109375 C-48.84998428 89.50742691 -48.42262482 88.64376007 -47.98231506 87.75392151 C-46.61887646 84.98893437 -45.2782368 82.21355439 -43.9375 79.4375 C-43.03203332 77.59499754 -42.12514718 75.75319193 -41.21679688 73.91210938 C-37.6503525 66.65524165 -34.12584467 59.39705793 -30.8952179 51.98327637 C-23.96101936 36.62117051 -12.30335401 20.33515361 2 11 C2.66 11 3.32 11 4 11 C3.71125 10.37351562 3.4225 9.74703125 3.125 9.1015625 C2.75375 8.28429687 2.3825 7.46703125 2 6.625 C1.62875 5.81289063 1.2575 5.00078125 0.875 4.1640625 C0 2 0 2 0 0 Z " fill="#EDF3FF" transform="translate(119,58)"/>
<path d="M0 0 C0.99 0 1.98 0 3 0 C3.02312121 12.7603387 3.04091395 25.52067245 3.05181217 38.28102779 C3.05704149 44.20550715 3.06414001 50.12997222 3.07543945 56.05444336 C3.08626661 61.76672571 3.09227647 67.47899428 3.09487724 73.19128609 C3.0967318 75.37588277 3.100353 77.56047865 3.10573006 79.7450695 C3.11293821 82.79352349 3.11399104 85.84191979 3.11352539 88.89038086 C3.11712067 89.80315796 3.12071594 90.71593506 3.12442017 91.65637207 C3.11405216 97.88594784 3.11405216 97.88594784 2 99 C0.21928754 99.08726223 -1.5648314 99.10699041 -3.34765625 99.09765625 C-4.42724609 99.09443359 -5.50683594 99.09121094 -6.61914062 99.08789062 C-7.75544922 99.07951172 -8.89175781 99.07113281 -10.0625 99.0625 C-11.20267578 99.05798828 -12.34285156 99.05347656 -13.51757812 99.04882812 C-16.34510351 99.03699747 -19.1725264 99.0205141 -22 99 C-22 98.67 -22 98.34 -22 98 C-14.74 98 -7.48 98 0 98 C0 65.66 0 33.32 0 0 Z " fill="#DCDCDC" transform="translate(697,47)"/>
<path d="M0 0 C0.99 0.33 1.98 0.66 3 1 C3 25.09 3 49.18 3 74 C0.44276771 75.27861615 -1.36737102 75.11336609 -4.2265625 75.09765625 C-5.7734375 75.09282227 -5.7734375 75.09282227 -7.3515625 75.08789062 C-8.97191406 75.07532227 -8.97191406 75.07532227 -10.625 75.0625 C-12.25695312 75.05573242 -12.25695312 75.05573242 -13.921875 75.04882812 C-16.61463789 75.03701776 -19.30729188 75.02054778 -22 75 C-22 74.67 -22 74.34 -22 74 C-14.74 74 -7.48 74 0 74 C0 49.58 0 25.16 0 0 Z " fill="#F7F7F7" transform="translate(445,71)"/>
<path d="M0 0 C0.66 0 1.32 0 2 0 C2 8.25 2 16.5 2 25 C-1.96 25.33 -5.92 25.66 -10 26 C-13.48706685 27.40498412 -13.48706685 27.40498412 -16 29 C-16.66 29 -17.32 29 -18 29 C-18.33 30.98 -18.66 32.96 -19 35 C-19.66 35 -20.32 35 -21 35 C-21 48.53 -21 62.06 -21 76 C-28.92 76 -36.84 76 -45 76 C-45 75.67 -45 75.34 -45 75 C-37.74 75 -30.48 75 -23 75 C-23.04640625 72.12152344 -23.0928125 69.24304688 -23.140625 66.27734375 C-23.17186458 63.47405763 -23.19612727 60.67079127 -23.21972656 57.86743164 C-23.23978028 55.92658742 -23.26703045 53.98580315 -23.30175781 52.04516602 C-23.35055175 49.24740768 -23.37303127 46.45045155 -23.390625 43.65234375 C-23.41127014 42.7916478 -23.43191528 41.93095184 -23.45318604 41.04417419 C-23.45534507 35.18198739 -22.39341486 31.8125288 -19 27 C-13.48907651 22.61952235 -6.68299013 23.79541867 0 24 C0 16.08 0 8.16 0 0 Z " fill="#F3F3F3" transform="translate(507,70)"/>
<path d="M0 0 C1.9375 0.8125 1.9375 0.8125 4 2 C4.495 3.485 4.495 3.485 5 5 C5.66 5 6.32 5 7 5 C7.495 7.475 7.495 7.475 8 10 C8.66 10 9.32 10 10 10 C12.58378379 21.71930506 12.58378379 32.28069494 10 44 C9.34 44 8.68 44 8 44 C7.9071875 45.051875 7.9071875 45.051875 7.8125 46.125 C6.69219429 50.08915867 4.83933474 52.02216113 2 55 C1.34 55 0.68 55 0 55 C-0.33 55.99 -0.66 56.98 -1 58 C-10.4517097 66.28919995 -23.09267708 66.71498937 -35 66 C-36.674211 65.70690205 -38.34567409 65.38999318 -40 65 C-40 64.67 -40 64.34 -40 64 C-38.35064453 64.05220703 -38.35064453 64.05220703 -36.66796875 64.10546875 C-23.69278885 64.39664926 -12.62692665 63.25501156 -2 55 C5.85177112 46.99625912 8.91476393 37.21501322 9.25 26.25 C9.12282662 15.94895587 5.5933051 8.50761617 0 0 Z " fill="#E3E3E3" transform="translate(777,81)"/>
<path d="M0 0 C0.99 0.33 1.98 0.66 3 1 C3 1.66 3 2.32 3 3 C3.66 3 4.32 3 5 3 C5.495 4.98 5.495 4.98 6 7 C6.66 7 7.32 7 8 7 C13.57568601 17.62865146 13.84715147 31.25311044 11.09375 42.80078125 C10.18721904 45.296979 9.23268689 47.65019062 8 50 C7.34 50 6.68 50 6 50 C5.67 51.32 5.34 52.64 5 54 C4.34 54 3.68 54 3 54 C2.67 54.99 2.34 55.98 2 57 C0.6846659 57.70151152 -0.65117592 58.36525925 -2 59 C-2.43828125 59.47179687 -2.8765625 59.94359375 -3.328125 60.4296875 C-5.36784704 62.34550119 -7.27016365 63.11948566 -9.875 64.125 C-11.13957031 64.62386719 -11.13957031 64.62386719 -12.4296875 65.1328125 C-17.59630844 66.87595817 -22.38947396 67.12996348 -27.8125 67.0625 C-28.50537109 67.05798828 -29.19824219 67.05347656 -29.91210938 67.04882812 C-31.60811068 67.03713156 -33.30406703 67.01919924 -35 67 C-35 66.67 -35 66.34 -35 66 C-34.12859375 65.97421875 -33.2571875 65.9484375 -32.359375 65.921875 C-18.46189409 65.26009019 -8.05638993 62.21676243 1.75 52.1875 C9.08693297 41.79351163 10.3036543 30.43069539 9 18 C7.21879216 11.35965717 4.11387471 5.48516628 0 0 Z " fill="#ECECEC" transform="translate(349,80)"/>
<path d="M0 0 C2.62187494 1.04874998 3.79371361 1.64931313 5.25 4.125 C5.4975 4.74375 5.745 5.3625 6 6 C6.66 6 7.32 6 8 6 C8.495 8.475 8.495 8.475 9 11 C9.66 11 10.32 11 11 11 C11.19916016 12.06541016 11.19916016 12.06541016 11.40234375 13.15234375 C11.57894531 14.07144531 11.75554688 14.99054688 11.9375 15.9375 C12.11152344 16.85402344 12.28554688 17.77054688 12.46484375 18.71484375 C12.77714988 20.95289844 12.77714988 20.95289844 14 22 C14 26.62 14 31.24 14 36 C-11.245 36.495 -11.245 36.495 -37 37 C-37 38.98 -37 40.96 -37 43 C-36.34 43 -35.68 43 -35 43 C-34.67 44.32 -34.34 45.64 -34 47 C-38.92044979 42.83654249 -39.0036099 41.9747307 -40 35 C-23.17 35 -6.34 35 11 35 C10.11898979 19.14181617 9.43557157 11.40046283 0 0 Z " fill="#E6E6E6" transform="translate(651,78)"/>
<path d="M0 0 C0.66 0 1.32 0 2 0 C2.33 1.98 2.66 3.96 3 6 C3.66 6 4.32 6 5 6 C5.33 7.98 5.66 9.96 6 12 C6.66 12 7.32 12 8 12 C10.03435531 15.72965139 11 17.66905042 11 22 C11.66 22 12.32 22 13 22 C13.33 23.65 13.66 25.3 14 27 C14.66 27 15.32 27 16 27 C16.33 29.31 16.66 31.62 17 34 C17.66 34 18.32 34 19 34 C19.33 35.98 19.66 37.96 20 40 C20.66 40 21.32 40 22 40 C22.33 41.98 22.66 43.96 23 46 C23.66 46 24.32 46 25 46 C25.33 47.98 25.66 49.96 26 52 C26.66 52 27.32 52 28 52 C28 53.32 28 54.64 28 56 C28.66 56 29.32 56 30 56 C30.33 57.98 30.66 59.96 31 62 C31.66 62 32.32 62 33 62 C33.495 64.97 33.495 64.97 34 68 C34.66 68 35.32 68 36 68 C36.495 71.465 36.495 71.465 37 75 C34.36481514 71.73675953 32.52551837 68.31067544 30.64599609 64.56665039 C30.32529648 63.93036209 30.00459686 63.29407379 29.67417908 62.63850403 C28.61980157 60.5436006 27.57135464 58.4457979 26.5234375 56.34765625 C25.79042842 54.88552692 25.05724094 53.42348701 24.32388306 51.96153259 C22.78968984 48.90059847 21.25859663 45.8381374 19.72949219 42.7746582 C17.77144293 38.85276092 15.80433178 34.93548893 13.834692 31.0194025 C12.31891676 28.00259454 10.80870126 24.98302941 9.3000679 21.96264458 C8.57711423 20.51725 7.85227346 19.07279769 7.12549973 17.62932014 C6.10963549 15.60995059 5.10150174 13.5868995 4.09521484 11.56274414 C3.2327565 9.83877159 3.2327565 9.83877159 2.35287476 8.07997131 C1.14464349 5.32929716 0.43398548 2.95859718 0 0 Z " fill="#F1F6FF" transform="translate(133,86)"/>
<path d="M0 0 C0.99 0.66 1.98 1.32 3 2 C2.34773438 1.97679688 1.69546875 1.95359375 1.0234375 1.9296875 C-6.57268627 1.77283539 -11.48367881 3.01780372 -18 7 C-18.66 7 -19.32 7 -20 7 C-20.33 8.32 -20.66 9.64 -21 11 C-21.66 11 -22.32 11 -23 11 C-23.33 12.98 -23.66 14.96 -24 17 C-24.66 17 -25.32 17 -26 17 C-26 23.93 -26 30.86 -26 38 C-25.34 38 -24.68 38 -24 38 C-21 44.625 -21 44.625 -21 48 C-26.98325727 42.01674273 -29.03278346 34.82924482 -29.375 26.4375 C-29.01213981 18.30943179 -26.70853993 11.59516504 -21.01171875 5.6953125 C-14.89053284 0.53687622 -7.91509811 -1.22869754 0 0 Z " fill="#E4E4E4" transform="translate(233,71)"/>
<path d="M0 0 C0.99 0.33 1.98 0.66 3 1 C2.01 4.3 1.02 7.6 0 11 C-0.66 11 -1.32 11 -2 11 C-2.226875 11.70125 -2.45375 12.4025 -2.6875 13.125 C-4.33841288 16.74128535 -6.2908835 19.08769976 -9 22 C-9.66 22 -10.32 22 -11 22 C-11.495 23.485 -11.495 23.485 -12 25 C-14.11825478 26.33957239 -16.1336358 27.47023039 -18.375 28.5625 C-19.00696289 28.8726001 -19.63892578 29.1827002 -20.29003906 29.50219727 C-28.98350637 33.59575505 -37.47282295 34.3719939 -47 34 C-47 33.67 -47 33.34 -47 33 C-45.81664062 32.82984375 -44.63328125 32.6596875 -43.4140625 32.484375 C-29.80812318 30.43966828 -17.52359 28.01490295 -8.24609375 16.8984375 C-4.54589464 11.64953351 -2.14084907 6.03215708 0 0 Z " fill="#EBEBEB" transform="translate(272,113)"/>
<path d="M0 0 C0.66 0 1.32 0 2 0 C4.43160605 3.36683915 5 4.73350364 5 9 C5.66 9 6.32 9 7 9 C5.6082886 12.31869641 4.13354851 13.90399424 1.1875 15.9375 C-3.26156276 19.13501153 -6.94144893 22.4121734 -10 27 C-10.66 27 -11.32 27 -12 27 C-12.33 27.99 -12.66 28.98 -13 30 C-13.66 30 -14.32 30 -15 30 C-15 30.66 -15 31.32 -15 32 C-15.66 32 -16.32 32 -17 32 C-17.495 34.475 -17.495 34.475 -18 37 C-18.66 37 -19.32 37 -20 37 C-20.33 38.32 -20.66 39.64 -21 41 C-21.99 41 -22.98 41 -24 41 C-20.03676493 29.87547383 -7.91396972 17.47040059 2 11 C2.66 11 3.32 11 4 11 C3.71125 10.37351562 3.4225 9.74703125 3.125 9.1015625 C2.75375 8.28429687 2.3825 7.46703125 2 6.625 C1.62875 5.81289063 1.2575 5.00078125 0.875 4.1640625 C0 2 0 2 0 0 Z " fill="#F3F7FF" transform="translate(119,58)"/>
<path d="M0 0 C4.875 2.625 4.875 2.625 6 6 C6.66 6 7.32 6 8 6 C10.11730842 12.35192526 10.39587344 21.37712238 7.9765625 27.65625 C3.50760317 34.07574958 -3.98121127 38.08008083 -11.5390625 39.73046875 C-17.32546226 40.3642173 -23.18867781 40.13620286 -29 40 C-29 39.67 -29 39.34 -29 39 C-27.80503906 38.90203125 -26.61007812 38.8040625 -25.37890625 38.703125 C-9.8540792 37.32315065 -9.8540792 37.32315065 3 29 C6.86877677 22.50497331 6.81203474 16.3781651 6 9 C4.76006173 5.71096186 3.21858021 3.60929011 0 2 C0 1.34 0 0.68 0 0 Z " fill="#E5E5E5" transform="translate(571,107)"/>
<path d="M0 0 C0.66 0.33 1.32 0.66 2 1 C1.67 2.98 1.34 4.96 1 7 C0.34 7 -0.32 7 -1 7 C-1.33 8.65 -1.66 10.3 -2 12 C-2.66 12 -3.32 12 -4 12 C-4.33 13.32 -4.66 14.64 -5 16 C-5.66 16 -6.32 16 -7 16 C-7.495 17.485 -7.495 17.485 -8 19 C-19.02136296 26.61229463 -29.12148652 27.30184016 -42 27 C-42 26.67 -42 26.34 -42 26 C-41.11699219 25.97421875 -40.23398437 25.9484375 -39.32421875 25.921875 C-26.75803225 25.32798434 -16.21360262 22.72915469 -7.375 13.3125 C-3.92688917 9.25275089 -1.8506662 4.96576272 0 0 Z " fill="#EDEDED" transform="translate(661,120)"/>
<path d="M0 0 C-1.33333333 0.66666667 -2.66666667 1.33333333 -4 2 C-5.546875 2.804375 -5.546875 2.804375 -7.125 3.625 C-10 5 -10 5 -12 5 C-12.68620031 6.32338632 -13.34786461 7.65949948 -14 9 C-14.37125 9.70125 -14.7425 10.4025 -15.125 11.125 C-17.3018876 18.27763068 -16.33576593 24.46189877 -13 31 C-12.67 31.99 -12.34 32.98 -12 34 C-15 33 -15 33 -16.16796875 31.28515625 C-19.50365946 24.0130949 -20.2974679 17.40458337 -17.875 9.6875 C-16.11820951 5.55485952 -13.67094938 3.5237777 -10 1 C-6.52674819 -0.1577506 -3.63932552 -0.06866652 0 0 Z " fill="#D6D6D6" transform="translate(324,89)"/>
<path d="M0 0 C-3.50538557 1.96301592 -7.13351728 2.95902388 -11 4 C-11.33 5.32 -11.66 6.64 -12 8 C-12.66 8 -13.32 8 -14 8 C-14.72526532 15.84402334 -15.21074074 23.19744856 -14 31 C-13.34 31 -12.68 31 -12 31 C-11.67 32.32 -11.34 33.64 -11 35 C-15.55655486 30.80317316 -17.71083034 27.87488442 -18.3359375 21.66015625 C-18.46701686 9.58774705 -18.46701686 9.58774705 -14 5 C-9.3343047 0.78949449 -6.23205741 -0.13849016 0 0 Z " fill="#EDEDED" transform="translate(751,89)"/>
<path d="M0 0 C-1.73449927 3.46899854 -5.95772958 4.01497986 -9.453125 5.2578125 C-10.73168365 5.7196846 -10.73168365 5.7196846 -12.03607178 6.19088745 C-13.84388045 6.84163826 -15.65302802 7.48867954 -17.46337891 8.13232422 C-20.2284743 9.11733192 -22.98739422 10.11833385 -25.74609375 11.12109375 C-27.50225355 11.75097839 -29.25875352 12.37991559 -31.015625 13.0078125 C-31.83975891 13.3077713 -32.66389282 13.6077301 -33.51300049 13.91677856 C-37.4539961 15.30532408 -40.75385196 16.40964098 -45 16 C-42.55876546 14.37251031 -40.70636622 13.40062337 -38.01928711 12.38012695 C-37.22513901 12.07673904 -36.43099091 11.77335114 -35.61277771 11.46076965 C-34.7595845 11.13984848 -33.9063913 10.81892731 -33.02734375 10.48828125 C-32.14849014 10.1557988 -31.26963654 9.82331635 -30.364151 9.48075867 C-28.50809773 8.78031241 -26.65125995 8.08194195 -24.79370117 7.38549805 C-21.9419234 6.31416175 -19.09497141 5.23064082 -16.24804688 4.14648438 C-14.44559504 3.46799893 -12.64286973 2.79023945 -10.83984375 2.11328125 C-9.98462631 1.78628738 -9.12940887 1.45929352 -8.24827576 1.12239075 C-7.45727982 0.82845932 -6.66628387 0.53452789 -5.85131836 0.23168945 C-5.15421249 -0.03097214 -4.45710663 -0.29363373 -3.73887634 -0.56425476 C-2 -1 -2 -1 0 0 Z " fill="#D5E5FF" transform="translate(59,161)"/>
<path d="M0 0 C0.66 0 1.32 0 2 0 C2 8.25 2 16.5 2 25 C-1.96 25.33 -5.92 25.66 -10 26 C-13.48706685 27.40498412 -13.48706685 27.40498412 -16 29 C-16.66 29 -17.32 29 -18 29 C-18 29.66 -18 30.32 -18 31 C-19.98 31.99 -19.98 31.99 -22 33 C-21.10703222 29.42812886 -20.06280717 28.05164145 -17.1875 25.6875 C-11.85331605 22.86151744 -5.8470484 23.7588846 0 24 C0 16.08 0 8.16 0 0 Z " fill="#E1E1E1" transform="translate(507,70)"/>
<path d="M0 0 C1.32 0.33 2.64 0.66 4 1 C4.33 2.98 4.66 4.96 5 7 C5.66 7 6.32 7 7 7 C7.6708712 8.6232687 8.33657029 10.24867578 9 11.875 C9.37125 12.77992187 9.7425 13.68484375 10.125 14.6171875 C11 17 11 17 11 19 C11.66 19 12.32 19 13 19 C15.03435531 22.72965139 16 24.66905042 16 29 C16.66 29 17.32 29 18 29 C18.33 30.98 18.66 32.96 19 35 C19.66 35 20.32 35 21 35 C21.33 37.31 21.66 39.62 22 42 C18.90691007 38.28219131 16.93003545 34.11387084 14.8046875 29.8046875 C14.41177521 29.01603302 14.01886292 28.22737854 13.61404419 27.41482544 C12.36391571 24.90340912 11.11938601 22.38926581 9.875 19.875 C9.03031709 18.1755977 8.18526901 16.47637686 7.33984375 14.77734375 C5.22249654 10.52023712 3.11070739 6.26040199 1 2 C0.67 1.34 0.34 0.68 0 0 Z " fill="#F3F7FF" transform="translate(91,4)"/>
<path d="M0 0 C0.495 1.485 0.495 1.485 1 3 C0.34 3 -0.32 3 -1 3 C-1.33 4.32 -1.66 5.64 -2 7 C-2.66 7 -3.32 7 -4 7 C-4.33 7.99 -4.66 8.98 -5 10 C-6.3153341 10.70151152 -7.65117592 11.36525925 -9 12 C-9.43828125 12.47179687 -9.8765625 12.94359375 -10.328125 13.4296875 C-12.36784704 15.34550119 -14.27016365 16.11948566 -16.875 17.125 C-17.71804688 17.45757812 -18.56109375 17.79015625 -19.4296875 18.1328125 C-24.59630844 19.87595817 -29.38947396 20.12996348 -34.8125 20.0625 C-35.50537109 20.05798828 -36.19824219 20.05347656 -36.91210938 20.04882812 C-38.60811068 20.03713156 -40.30406703 20.01919924 -42 20 C-42 19.67 -42 19.34 -42 19 C-41.12859375 18.97421875 -40.2571875 18.9484375 -39.359375 18.921875 C-27.49728801 18.35701371 -16.87140407 16.37625593 -8 8 C-6.24235376 6.05830703 -4.63217553 4.05187781 -3 2 C-2.01 1.34 -1.02 0.68 0 0 Z " fill="#F1F1F1" transform="translate(356,127)"/>
<path d="M0 0 C1.485 0.99 1.485 0.99 3 2 C2.34 2 1.68 2 1 2 C1.09380036 7.72944828 1.19995345 13.45848721 1.31738281 19.1875 C1.35558233 21.13502798 1.39045075 23.08262435 1.421875 25.03027344 C1.46772196 27.83553446 1.52568366 30.64032839 1.5859375 33.4453125 C1.59748871 34.31116974 1.60903992 35.17702698 1.62094116 36.06912231 C1.73493852 40.77594804 2.28662696 44.55381843 4 49 C4 49.66 4 50.32 4 51 C4.66 51 5.32 51 6 51 C6 51.66 6 52.32 6 53 C3.61682808 52.04673123 2.26632842 51.42381494 0.88137817 49.21990967 C-0.11171995 46.71861318 -0.24148725 44.91662874 -0.22705078 42.23144531 C-0.22689972 41.29077209 -0.22674866 40.35009888 -0.22659302 39.38092041 C-0.21627045 38.37349792 -0.20594788 37.36607544 -0.1953125 36.328125 C-0.1924826 35.29057068 -0.18965271 34.25301636 -0.18673706 33.184021 C-0.17554865 29.87256299 -0.15044627 26.56137616 -0.125 23.25 C-0.11496848 21.00391016 -0.10584293 18.75781607 -0.09765625 16.51171875 C-0.0756137 11.00772009 -0.04214932 5.50387942 0 0 Z " fill="#FEFEFE" transform="translate(394,71)"/>
<path d="M0 0 C1.9375 0.8125 1.9375 0.8125 4 2 C4.33 2.99 4.66 3.98 5 5 C5.66 5 6.32 5 7 5 C7.33 6.65 7.66 8.3 8 10 C8.66 10 9.32 10 10 10 C11.42002108 16.7831364 12.22731216 23.06697907 12 30 C11.34 30.33 10.68 30.66 10 31 C9.92523437 29.98421875 9.85046875 28.9684375 9.7734375 27.921875 C8.80946998 17.1754708 6.05607481 9.08411221 0 0 Z " fill="#F8F8F8" transform="translate(777,81)"/>
<path d="M0 0 C0.66 0 1.32 0 2 0 C2 0.66 2 1.32 2 2 C2.66 2 3.32 2 4 2 C6.50964189 6.59906468 8.61033325 10.6745544 9 16 C8 17 8 17 5.86694336 17.11352539 C4.95050049 17.10828857 4.03405762 17.10305176 3.08984375 17.09765625 C2.10048828 17.09443359 1.11113281 17.09121094 0.09179688 17.08789062 C-0.94912109 17.07951172 -1.99003906 17.07113281 -3.0625 17.0625 C-4.10728516 17.05798828 -5.15207031 17.05347656 -6.22851562 17.04882812 C-8.8190666 17.03699913 -11.40950559 17.02051689 -14 17 C-14 16.67 -14 16.34 -14 16 C-7.4 16 -0.8 16 6 16 C4.3967597 10.35048657 2.85403778 5.16444932 0 0 Z " fill="#FCFCFC" transform="translate(572,79)"/>
<path d="M0 0 C0.66 0 1.32 0 2 0 C2.33 1.65 2.66 3.3 3 5 C3.66 5 4.32 5 5 5 C5 6.32 5 7.64 5 9 C5.66 9 6.32 9 7 9 C7.33 10.98 7.66 12.96 8 15 C-1.24 15 -10.48 15 -20 15 C-20 14.67 -20 14.34 -20 14 C-11.75 14 -3.5 14 5 14 C3.68 10.7 2.36 7.4 1 4 C0.67 2.68 0.34 1.36 0 0 Z " fill="#E9E9E9" transform="translate(267,69)"/>
<path d="M0 0 C0.89203125 0.01804687 1.7840625 0.03609375 2.703125 0.0546875 C3.71632813 0.08949219 3.71632813 0.08949219 4.75 0.125 C4.75 0.455 4.75 0.785 4.75 1.125 C3.71939453 1.32416016 3.71939453 1.32416016 2.66796875 1.52734375 C1.31638672 1.79224609 1.31638672 1.79224609 -0.0625 2.0625 C-1.40248047 2.32353516 -1.40248047 2.32353516 -2.76953125 2.58984375 C-5.36397171 3.10241153 -5.36397171 3.10241153 -8.25 4.125 C-8.98323796 6.14008358 -8.98323796 6.14008358 -9.25 8.125 C-9.91 8.125 -10.57 8.125 -11.25 8.125 C-11.25 9.775 -11.25 11.425 -11.25 13.125 C-12.24 13.125 -13.23 13.125 -14.25 13.125 C-13.79713369 8.25668719 -12.66678531 5.63940774 -9.25 2.125 C-6.08561171 0.14298574 -3.70145518 -0.09740672 0 0 Z " fill="#E4E4E4" transform="translate(625.25,87.875)"/>
<path d="M0 0 C0.99 0.33 1.98 0.66 3 1 C2.01 4.3 1.02 7.6 0 11 C-0.66 11 -1.32 11 -2 11 C-2.2475 11.78375 -2.495 12.5675 -2.75 13.375 C-4.15389099 16.32317108 -5.00675737 16.9024777 -8 18 C-7.72285156 17.45472656 -7.44570313 16.90945312 -7.16015625 16.34765625 C-5.86790276 13.73269212 -4.64721343 11.09164737 -3.4375 8.4375 C-3.00308594 7.48746094 -2.56867188 6.53742188 -2.12109375 5.55859375 C-0.93570603 2.95894129 -0.93570603 2.95894129 0 0 Z " fill="#E7E7E7" transform="translate(272,113)"/>
<path d="M0 0 C0.33 0.99 0.66 1.98 1 3 C-7.10503876 9.85479342 -13.51008814 11.43707966 -24 11 C-24 10.67 -24 10.34 -24 10 C-23.0821875 9.84144531 -22.164375 9.68289062 -21.21875 9.51953125 C-12.79661255 7.91826352 -6.14411894 6.14411894 0 0 Z " fill="#EEEEEE" transform="translate(421,136)"/>
<path d="M0 0 C0.9796875 -0.01417969 1.959375 -0.02835937 2.96875 -0.04296875 C5.5 0.1875 5.5 0.1875 7.5 2.1875 C3.87 2.1875 0.24 2.1875 -3.5 2.1875 C-3.83 2.8475 -4.16 3.5075 -4.5 4.1875 C-5.16 4.1875 -5.82 4.1875 -6.5 4.1875 C-6.5 5.5075 -6.5 6.8275 -6.5 8.1875 C-5.84 8.1875 -5.18 8.1875 -4.5 8.1875 C-4.5 8.8475 -4.5 9.5075 -4.5 10.1875 C-5.82 9.5275 -7.14 8.8675 -8.5 8.1875 C-8.24438677 5.8443787 -7.90729228 3.50906597 -7.5 1.1875 C-4.89820337 -0.11339831 -2.9030812 0.01909922 0 0 Z " fill="#E8E8E8" transform="translate(546.5,86.8125)"/>
<path d="M0 0 C-1 3 -1 3 -2.63671875 4.16796875 C-6.93969729 6.30716379 -10.07385397 7.4926146 -15 7 C-14.43539062 6.72414062 -13.87078125 6.44828125 -13.2890625 6.1640625 C-10.1367536 4.56101122 -7.08906094 2.78540712 -4.0234375 1.0234375 C-2 0 -2 0 0 0 Z " fill="#E6E6E6" transform="translate(774,138)"/>
<path d="M0 0 C-0.83144531 0.41185547 -0.83144531 0.41185547 -1.6796875 0.83203125 C-3.2974285 1.64634869 -4.90624671 2.47853214 -6.5078125 3.32421875 C-7.37148438 3.77410156 -8.23515625 4.22398438 -9.125 4.6875 C-10.42824219 5.37392578 -10.42824219 5.37392578 -11.7578125 6.07421875 C-12.49773437 6.37972656 -13.23765625 6.68523437 -14 7 C-14.66 6.67 -15.32 6.34 -16 6 C-10.43869062 1.18019853 -7.6034286 -0.14346092 0 0 Z " fill="#D9D9D9" transform="translate(324,89)"/>
<path d="M0 0 C0 3.93169105 -1.39419615 5.16427228 -4 8 C-4.66 8 -5.32 8 -6 8 C-6.33 8.99 -6.66 9.98 -7 11 C-7.66 11 -8.32 11 -9 11 C-6.92623208 6.33402219 -4.25832657 2.83888438 0 0 Z " fill="#F7F7F7" transform="translate(783,128)"/>
<path d="M0 0 C0.66 0.33 1.32 0.66 2 1 C1.67 2.98 1.34 4.96 1 7 C0.34 7 -0.32 7 -1 7 C-1.33 8.65 -1.66 10.3 -2 12 C-2.66 12 -3.32 12 -4 12 C-3.33501617 7.61110675 -1.81242323 4.0188515 0 0 Z " fill="#F0F0F0" transform="translate(661,120)"/>
<path d="M0 0 C0.33 0 0.66 0 1 0 C1 1.65 1 3.3 1 5 C1.66 5 2.32 5 3 5 C6 11.625 6 11.625 6 15 C1.68870842 10.46179834 0.04985956 7.19417139 -1 1 C-0.67 0.67 -0.34 0.34 0 0 Z " fill="#EFEFEF" transform="translate(206,104)"/>
<path d="M0 0 C0.66 0 1.32 0 2 0 C2 0.66 2 1.32 2 2 C2.66 2 3.32 2 4 2 C6.17364926 4.81769349 7.08677021 6.2190681 6.6875 9.8125 C6.460625 10.534375 6.23375 11.25625 6 12 C4 8 2 4 0 0 Z " fill="#E8E8E8" transform="translate(572,79)"/>
<path d="M0 0 C0.99 0 1.98 0 3 0 C2.42415568 2.38564077 1.77772405 4.66682784 1 7 C-0.98 7.99 -0.98 7.99 -3 9 C-2.01 6.03 -1.02 3.06 0 0 Z " fill="#E3E3E3" transform="translate(357,120)"/>
<path d="M0 0 C0.66 0.33 1.32 0.66 2 1 C2.40729228 3.32156597 2.74438677 5.6568787 3 8 C3.66 8 4.32 8 5 8 C5 8.66 5 9.32 5 10 C3.125 9.375 3.125 9.375 1 8 C-0.3125 5 -0.3125 5 -1 2 C-0.67 1.34 -0.34 0.68 0 0 Z " fill="#E6E6E6" transform="translate(395,114)"/>
<path d="M0 0 C0 3.69418201 -1.28179295 5.77836178 -3 9 C-3.66 9 -4.32 9 -5 9 C-4.50769231 3.46153846 -4.50769231 3.46153846 -1.9375 1.125 C-1.298125 0.75375 -0.65875 0.3825 0 0 Z " fill="#F3F3F3" transform="translate(311,94)"/>
<path d="M0 0 C0.66 0 1.32 0 2 0 C5 5.625 5 5.625 5 9 C3.68 9.33 2.36 9.66 1 10 C1.020625 9.0925 1.04125 8.185 1.0625 7.25 C1.0110245 4.57327412 0.7784983 2.53011948 0 0 Z " fill="#FBFCFF" transform="translate(173,167)"/>
<path d="M0 0 C0 3.9519815 -1.37176172 5.14648416 -4 8 C-4.99 8.33 -5.98 8.66 -7 9 C-5.44499019 5.18315774 -2.96404505 2.80804268 0 0 Z " fill="#F7F7F7" transform="translate(578,132)"/>
<path d="M0 0 C1.98 0.99 1.98 0.99 4 2 C4.33 2.99 4.66 3.98 5 5 C5.66 5 6.32 5 7 5 C7.33 6.32 7.66 7.64 8 9 C7.01 9.495 7.01 9.495 6 10 C4.02 6.7 2.04 3.4 0 0 Z " fill="#E8E8E8" transform="translate(777,81)"/>
<path d="M0 0 C0 0.99 0 1.98 0 3 C-0.639375 3.268125 -1.27875 3.53625 -1.9375 3.8125 C-4.33131686 4.88667752 -4.33131686 4.88667752 -5 8 C-5.66 7.67 -6.32 7.34 -7 7 C-2.25 1.125 -2.25 1.125 0 0 Z " fill="#FAFAFA" transform="translate(265,130)"/>
<path d="M0 0 C0.66 0 1.32 0 2 0 C3 3 4 6 5 9 C2 8 2 8 0 5 C-0.125 2.3125 -0.125 2.3125 0 0 Z " fill="#EAEAEA" transform="translate(307,114)"/>
</svg>
