<?xml version="1.0" encoding="UTF-8"?>
<svg version="1.1" xmlns="http://www.w3.org/2000/svg" width="180" height="177">
<path d="M0 0 C2.8125 0.875 2.8125 0.875 4.8125 1.875 C5.4375 4.9375 5.4375 4.9375 5.8125 7.875 C6.4725 7.875 7.1325 7.875 7.8125 7.875 C8.4833712 9.4982687 9.14907029 11.12367578 9.8125 12.75 C10.18375 13.65492187 10.555 14.55984375 10.9375 15.4921875 C11.8125 17.875 11.8125 17.875 11.8125 19.875 C12.4725 19.875 13.1325 19.875 13.8125 19.875 C15.84685531 23.60465139 16.8125 25.54405042 16.8125 29.875 C17.4725 29.875 18.1325 29.875 18.8125 29.875 C19.3075 32.845 19.3075 32.845 19.8125 35.875 C20.4725 35.875 21.1325 35.875 21.8125 35.875 C22.3075 39.34 22.3075 39.34 22.8125 42.875 C23.4725 42.875 24.1325 42.875 24.8125 42.875 C25.3075 45.35 25.3075 45.35 25.8125 47.875 C26.4725 47.875 27.1325 47.875 27.8125 47.875 C28.3075 51.34 28.3075 51.34 28.8125 54.875 C29.4725 54.875 30.1325 54.875 30.8125 54.875 C33.24410605 58.24183915 33.8125 59.60850364 33.8125 63.875 C34.4725 63.875 35.1325 63.875 35.8125 63.875 C34.4207886 67.19369641 32.94604851 68.77899424 30 70.8125 C25.55093724 74.01001153 21.87105107 77.2871734 18.8125 81.875 C18.1525 81.875 17.4925 81.875 16.8125 81.875 C16.3175 83.36 16.3175 83.36 15.8125 84.875 C15.1525 84.875 14.4925 84.875 13.8125 84.875 C13.8125 85.535 13.8125 86.195 13.8125 86.875 C13.1525 86.875 12.4925 86.875 11.8125 86.875 C11.4825 88.525 11.1525 90.175 10.8125 91.875 C10.1525 91.875 9.4925 91.875 8.8125 91.875 C8.3175 93.855 8.3175 93.855 7.8125 95.875 C7.1525 95.875 6.4925 95.875 5.8125 95.875 C5.709375 96.555625 5.60625 97.23625 5.5 97.9375 C4.66524981 101.50415989 3.31777246 104.53722194 1.8125 107.875 C1.1525 107.875 0.4925 107.875 -0.1875 107.875 C-0.5175 110.185 -0.8475 112.495 -1.1875 114.875 C-1.8475 114.875 -2.5075 114.875 -3.1875 114.875 C-3.5175 116.855 -3.8475 118.835 -4.1875 120.875 C-4.8475 120.875 -5.5075 120.875 -6.1875 120.875 C-6.1875 121.865 -6.1875 122.855 -6.1875 123.875 C-6.8475 123.875 -7.5075 123.875 -8.1875 123.875 C-8.5175 126.185 -8.8475 128.495 -9.1875 130.875 C-9.8475 130.875 -10.5075 130.875 -11.1875 130.875 C-11.5175 132.525 -11.8475 134.175 -12.1875 135.875 C-12.8475 135.875 -13.5075 135.875 -14.1875 135.875 C-14.5175 138.185 -14.8475 140.495 -15.1875 142.875 C-15.8475 142.875 -16.5075 142.875 -17.1875 142.875 C-17.6825 145.845 -17.6825 145.845 -18.1875 148.875 C-18.8475 148.875 -19.5075 148.875 -20.1875 148.875 C-20.125625 149.761875 -20.06375 150.64875 -20 151.5625 C-21.1875 154.875 -21.1875 154.875 -23.03295898 156.03515625 C-31.53840761 159.70536627 -40.15980968 163.04505522 -48.85595703 166.23364258 C-50.57362509 166.86830582 -52.28756789 167.51314588 -53.99755859 168.16821289 C-65.04820944 172.39832487 -74.28246464 174.95696952 -86.1875 173.875 C-85.8575 170.905 -85.5275 167.935 -85.1875 164.875 C-84.5275 164.875 -83.8675 164.875 -83.1875 164.875 C-83.06375 163.9675 -82.94 163.06 -82.8125 162.125 C-82.26640323 159.28529677 -81.61486197 157.34909409 -80.1875 154.875 C-79.5275 154.875 -78.8675 154.875 -78.1875 154.875 C-78.084375 154.00875 -77.98125 153.1425 -77.875 152.25 C-77.15351586 148.70816877 -75.91626739 146.03187958 -74.1875 142.875 C-73.5275 142.875 -72.8675 142.875 -72.1875 142.875 C-71.8575 140.565 -71.5275 138.255 -71.1875 135.875 C-70.5275 135.875 -69.8675 135.875 -69.1875 135.875 C-68.6925 132.905 -68.6925 132.905 -68.1875 129.875 C-67.5275 129.875 -66.8675 129.875 -66.1875 129.875 C-65.8575 127.565 -65.5275 125.255 -65.1875 122.875 C-64.5275 122.875 -63.8675 122.875 -63.1875 122.875 C-63.1875 121.885 -63.1875 120.895 -63.1875 119.875 C-62.5275 119.875 -61.8675 119.875 -61.1875 119.875 C-60.8575 117.895 -60.5275 115.915 -60.1875 113.875 C-59.5275 113.875 -58.8675 113.875 -58.1875 113.875 C-57.8575 111.565 -57.5275 109.255 -57.1875 106.875 C-56.5275 106.875 -55.8675 106.875 -55.1875 106.875 C-54.8575 104.895 -54.5275 102.915 -54.1875 100.875 C-53.5275 100.875 -52.8675 100.875 -52.1875 100.875 C-51.8575 98.565 -51.5275 96.255 -51.1875 93.875 C-50.5275 93.875 -49.8675 93.875 -49.1875 93.875 C-48.8575 91.895 -48.5275 89.915 -48.1875 87.875 C-47.5275 87.875 -46.8675 87.875 -46.1875 87.875 C-46.001875 86.51375 -46.001875 86.51375 -45.8125 85.125 C-45.26640323 82.28529677 -44.61486197 80.34909409 -43.1875 77.875 C-42.5275 77.875 -41.8675 77.875 -41.1875 77.875 C-40.8575 75.565 -40.5275 73.255 -40.1875 70.875 C-39.5275 70.875 -38.8675 70.875 -38.1875 70.875 C-37.8575 69.225 -37.5275 67.575 -37.1875 65.875 C-36.5275 65.875 -35.8675 65.875 -35.1875 65.875 C-35.084375 64.84375 -34.98125 63.8125 -34.875 62.75 C-34.19622203 58.92416055 -33.07591205 56.24129975 -31.1875 52.875 C-30.5275 52.875 -29.8675 52.875 -29.1875 52.875 C-28.8575 50.565 -28.5275 48.255 -28.1875 45.875 C-27.5275 45.875 -26.8675 45.875 -26.1875 45.875 C-26.06375 45.318125 -25.94 44.76125 -25.8125 44.1875 C-25.12773145 41.65385636 -24.19616237 39.29578968 -23.1875 36.875 C-22.5275 36.875 -21.8675 36.875 -21.1875 36.875 C-20.8575 34.565 -20.5275 32.255 -20.1875 29.875 C-19.5275 29.875 -18.8675 29.875 -18.1875 29.875 C-17.8575 27.895 -17.5275 25.915 -17.1875 23.875 C-16.5275 23.875 -15.8675 23.875 -15.1875 23.875 C-14.8575 21.565 -14.5275 19.255 -14.1875 16.875 C-13.5275 16.875 -12.8675 16.875 -12.1875 16.875 C-11.8575 14.895 -11.5275 12.915 -11.1875 10.875 C-10.5275 10.875 -9.8675 10.875 -9.1875 10.875 C-9.125625 9.988125 -9.06375 9.10125 -9 8.1875 C-7.75259005 3.10190559 -5.520007 -0.21647086 0 0 Z " fill="#0461FE" transform="translate(90.1875,3.125)"/>
<path d="M0 0 C1.98 0 3.96 0 6 0 C6.33 2.31 6.66 4.62 7 7 C7.66 7 8.32 7 9 7 C9.495 9.97 9.495 9.97 10 13 C10.66 13 11.32 13 12 13 C12.495 15.97 12.495 15.97 13 19 C13.66 19 14.32 19 15 19 C15.495 21.97 15.495 21.97 16 25 C16.66 25 17.32 25 18 25 C20.03435531 28.72965139 21 30.66905042 21 35 C21.66 35 22.32 35 23 35 C23.495 37.475 23.495 37.475 24 40 C24.66 40 25.32 40 26 40 C26.495 43.465 26.495 43.465 27 47 C27.66 47 28.32 47 29 47 C29.495 49.97 29.495 49.97 30 53 C30.66 53 31.32 53 32 53 C32.495 55.97 32.495 55.97 33 59 C33.66 59 34.32 59 35 59 C35.495 61.97 35.495 61.97 36 65 C36.66 65 37.32 65 38 65 C38 66.32 38 67.64 38 69 C38.66 69 39.32 69 40 69 C40.33 70.98 40.66 72.96 41 75 C41.66 75 42.32 75 43 75 C43.33 76.98 43.66 78.96 44 81 C44.66 81 45.32 81 46 81 C46.495 84.465 46.495 84.465 47 88 C47.66 88 48.32 88 49 88 C49.33 89.98 49.66 91.96 50 94 C50.66 94 51.32 94 52 94 C55 99.625 55 99.625 55 103 C49.01282393 105.99358804 41.16586493 104.9075784 34.95458984 103.12695312 C27.9785989 100.76811263 21.14169962 98.05283153 14.30810547 95.31298828 C9.50932915 93.40835219 4.66451195 91.63847284 -0.1875 89.875 C-1.72290348 89.3105679 -3.2580886 88.74554114 -4.79296875 88.1796875 C-5.85128906 87.79039062 -6.90960938 87.40109375 -8 87 C-8 86.34 -8 85.68 -8 85 C-8.66 85 -9.32 85 -10 85 C-10.495 82.03 -10.495 82.03 -11 79 C-11.66 79 -12.32 79 -13 79 C-13.495 76.03 -13.495 76.03 -14 73 C-14.66 73 -15.32 73 -16 73 C-16.495 70.03 -16.495 70.03 -17 67 C-17.66 67 -18.32 67 -19 67 C-19 66.01 -19 65.02 -19 64 C-19.66 64 -20.32 64 -21 64 C-25.79190044 54.95100944 -25.43994663 47.89963305 -24 38 C-23.34 38 -22.68 38 -22 38 C-21.67 35.36 -21.34 32.72 -21 30 C-20.34 30 -19.68 30 -19 30 C-19 29.01 -19 28.02 -19 27 C-18.34 27 -17.68 27 -17 27 C-16.67 24.69 -16.34 22.38 -16 20 C-15.34 20 -14.68 20 -14 20 C-13.67 18.35 -13.34 16.7 -13 15 C-12.34 15 -11.68 15 -11 15 C-10.67 14.01 -10.34 13.02 -10 12 C-9.34 12 -8.68 12 -8 12 C-7.67 10.35 -7.34 8.7 -7 7 C-6.34 7 -5.68 7 -5 7 C-4.67 6.01 -4.34 5.02 -4 4 C-3.34 4 -2.68 4 -2 4 C-2 3.34 -2 2.68 -2 2 C-1.34 2 -0.68 2 0 2 C0 1.34 0 0.68 0 0 Z " fill="#0964FE" transform="translate(123,73)"/>
<path d="M0 0 C0.66 0 1.32 0 2 0 C4.43160605 3.36683915 5 4.73350364 5 9 C5.66 9 6.32 9 7 9 C5.6082886 12.31869641 4.13354851 13.90399424 1.1875 15.9375 C-3.26156276 19.13501153 -6.94144893 22.4121734 -10 27 C-10.66 27 -11.32 27 -12 27 C-12.495 28.485 -12.495 28.485 -13 30 C-13.66 30 -14.32 30 -15 30 C-15 30.66 -15 31.32 -15 32 C-15.66 32 -16.32 32 -17 32 C-17.33 33.65 -17.66 35.3 -18 37 C-18.66 37 -19.32 37 -20 37 C-20.33 38.32 -20.66 39.64 -21 41 C-21.66 41 -22.32 41 -23 41 C-23.103125 41.680625 -23.20625 42.36125 -23.3125 43.0625 C-24.14725019 46.62915989 -25.49472754 49.66222194 -27 53 C-27.66 53 -28.32 53 -29 53 C-29.33 55.31 -29.66 57.62 -30 60 C-30.66 60 -31.32 60 -32 60 C-32.33 61.98 -32.66 63.96 -33 66 C-33.66 66 -34.32 66 -35 66 C-35 66.99 -35 67.98 -35 69 C-35.66 69 -36.32 69 -37 69 C-37.33 71.31 -37.66 73.62 -38 76 C-38.66 76 -39.32 76 -40 76 C-40.33 77.65 -40.66 79.3 -41 81 C-41.66 81 -42.32 81 -43 81 C-43.33 83.31 -43.66 85.62 -44 88 C-44.66 88 -45.32 88 -46 88 C-46.33 89.98 -46.66 91.96 -47 94 C-47.66 94 -48.32 94 -49 94 C-48.938125 94.886875 -48.87625 95.77375 -48.8125 96.6875 C-50 100 -50 100 -51.82348633 101.16015625 C-60.48728928 104.92416758 -69.32779349 108.17457833 -78.21777344 111.35864258 C-80.89339092 112.31910174 -83.56387238 113.29300095 -86.234375 114.26757812 C-87.94501802 114.88363082 -89.65594562 115.49889401 -91.3671875 116.11328125 C-92.15995087 116.40382889 -92.95271423 116.69437653 -93.76950073 116.99372864 C-97.63382702 118.36402358 -100.83307379 119.38348175 -105 119 C-102.48319457 117.32212971 -100.57744563 116.36362045 -97.79150391 115.3359375 C-96.94697662 115.02221191 -96.10244934 114.70848633 -95.23233032 114.38525391 C-94.32292694 114.05187012 -93.41352356 113.71848633 -92.4765625 113.375 C-91.53823578 113.02743652 -90.59990906 112.67987305 -89.63314819 112.32177734 C-86.63177112 111.21085597 -83.62846093 110.10527362 -80.625 109 C-77.62910118 107.89361476 -74.63360536 106.78614628 -71.63827515 105.67822266 C-69.77445919 104.98925576 -67.91023743 104.30138544 -66.04556274 103.61474609 C-64.38609725 103.00285441 -62.72963577 102.38272021 -61.07707214 101.75242615 C-59 101 -59 101 -56.18334961 100.31274414 C-52.43955113 98.06177641 -51.11391949 94.21980928 -49.27734375 90.37109375 C-48.84998428 89.50742691 -48.42262482 88.64376007 -47.98231506 87.75392151 C-46.61887646 84.98893437 -45.2782368 82.21355439 -43.9375 79.4375 C-43.03203332 77.59499754 -42.12514718 75.75319193 -41.21679688 73.91210938 C-37.6503525 66.65524165 -34.12584467 59.39705793 -30.8952179 51.98327637 C-23.96101936 36.62117051 -12.30335401 20.33515361 2 11 C2.66 11 3.32 11 4 11 C3.71125 10.37351562 3.4225 9.74703125 3.125 9.1015625 C2.75375 8.28429687 2.3825 7.46703125 2 6.625 C1.62875 5.81289063 1.2575 5.00078125 0.875 4.1640625 C0 2 0 2 0 0 Z " fill="#ECF3FE" transform="translate(119,58)"/>
<path d="M0 0 C0.66 0 1.32 0 2 0 C2.33 1.98 2.66 3.96 3 6 C3.66 6 4.32 6 5 6 C5.33 7.98 5.66 9.96 6 12 C6.66 12 7.32 12 8 12 C10.03435531 15.72965139 11 17.66905042 11 22 C11.66 22 12.32 22 13 22 C13.33 23.65 13.66 25.3 14 27 C14.66 27 15.32 27 16 27 C16.33 29.31 16.66 31.62 17 34 C17.66 34 18.32 34 19 34 C19.33 35.98 19.66 37.96 20 40 C20.66 40 21.32 40 22 40 C22.33 41.98 22.66 43.96 23 46 C23.66 46 24.32 46 25 46 C25.33 47.98 25.66 49.96 26 52 C26.66 52 27.32 52 28 52 C28 53.32 28 54.64 28 56 C28.66 56 29.32 56 30 56 C30.33 57.98 30.66 59.96 31 62 C31.66 62 32.32 62 33 62 C33.495 64.97 33.495 64.97 34 68 C34.66 68 35.32 68 36 68 C36.495 71.465 36.495 71.465 37 75 C34.36481514 71.73675953 32.52551837 68.31067544 30.64599609 64.56665039 C30.32529648 63.93036209 30.00459686 63.29407379 29.67417908 62.63850403 C28.61980157 60.5436006 27.57135464 58.4457979 26.5234375 56.34765625 C25.79042842 54.88552692 25.05724094 53.42348701 24.32388306 51.96153259 C22.78968984 48.90059847 21.25859663 45.8381374 19.72949219 42.7746582 C17.77144293 38.85276092 15.80433178 34.93548893 13.834692 31.0194025 C12.31891676 28.00259454 10.80870126 24.98302941 9.3000679 21.96264458 C8.57711423 20.51725 7.85227346 19.07279769 7.12549973 17.62932014 C6.10963549 15.60995059 5.10150174 13.5868995 4.09521484 11.56274414 C3.2327565 9.83877159 3.2327565 9.83877159 2.35287476 8.07997131 C1.14464349 5.32929716 0.43398548 2.95859718 0 0 Z " fill="#F0F5FE" transform="translate(133,86)"/>
<path d="M0 0 C0.66 0 1.32 0 2 0 C4.43160605 3.36683915 5 4.73350364 5 9 C5.66 9 6.32 9 7 9 C5.6082886 12.31869641 4.13354851 13.90399424 1.1875 15.9375 C-3.26156276 19.13501153 -6.94144893 22.4121734 -10 27 C-10.66 27 -11.32 27 -12 27 C-12.33 27.99 -12.66 28.98 -13 30 C-13.66 30 -14.32 30 -15 30 C-15 30.66 -15 31.32 -15 32 C-15.66 32 -16.32 32 -17 32 C-17.495 34.475 -17.495 34.475 -18 37 C-18.66 37 -19.32 37 -20 37 C-20.33 38.32 -20.66 39.64 -21 41 C-21.99 41 -22.98 41 -24 41 C-20.03676493 29.87547383 -7.91396972 17.47040059 2 11 C2.66 11 3.32 11 4 11 C3.71125 10.37351562 3.4225 9.74703125 3.125 9.1015625 C2.75375 8.28429687 2.3825 7.46703125 2 6.625 C1.62875 5.81289063 1.2575 5.00078125 0.875 4.1640625 C0 2 0 2 0 0 Z " fill="#F2F6FE" transform="translate(119,58)"/>
<path d="M0 0 C-1.73449927 3.46899854 -5.95772958 4.01497986 -9.453125 5.2578125 C-10.73168365 5.7196846 -10.73168365 5.7196846 -12.03607178 6.19088745 C-13.84388045 6.84163826 -15.65302802 7.48867954 -17.46337891 8.13232422 C-20.2284743 9.11733192 -22.98739422 10.11833385 -25.74609375 11.12109375 C-27.50225355 11.75097839 -29.25875352 12.37991559 -31.015625 13.0078125 C-31.83975891 13.3077713 -32.66389282 13.6077301 -33.51300049 13.91677856 C-37.4539961 15.30532408 -40.75385196 16.40964098 -45 16 C-42.55876546 14.37251031 -40.70636622 13.40062337 -38.01928711 12.38012695 C-37.22513901 12.07673904 -36.43099091 11.77335114 -35.61277771 11.46076965 C-34.7595845 11.13984848 -33.9063913 10.81892731 -33.02734375 10.48828125 C-32.14849014 10.1557988 -31.26963654 9.82331635 -30.364151 9.48075867 C-28.50809773 8.78031241 -26.65125995 8.08194195 -24.79370117 7.38549805 C-21.9419234 6.31416175 -19.09497141 5.23064082 -16.24804688 4.14648438 C-14.44559504 3.46799893 -12.64286973 2.79023945 -10.83984375 2.11328125 C-9.98462631 1.78628738 -9.12940887 1.45929352 -8.24827576 1.12239075 C-7.45727982 0.82845932 -6.66628387 0.53452789 -5.85131836 0.23168945 C-5.15421249 -0.03097214 -4.45710663 -0.29363373 -3.73887634 -0.56425476 C-2 -1 -2 -1 0 0 Z " fill="#D5E4FE" transform="translate(59,161)"/>
<path d="M0 0 C2.4375 0.625 2.4375 0.625 5 2 C5.8125 5.125 5.8125 5.125 6 8 C6.66 8 7.32 8 8 8 C8.6708712 9.6232687 9.33657029 11.24867578 10 12.875 C10.37125 13.77992187 10.7425 14.68484375 11.125 15.6171875 C12 18 12 18 12 20 C12.66 20 13.32 20 14 20 C16.03435531 23.72965139 17 25.66905042 17 30 C17.66 30 18.32 30 19 30 C19.33 31.98 19.66 33.96 20 36 C20.66 36 21.32 36 22 36 C22.33 38.31 22.66 40.62 23 43 C19.8941081 39.27892258 17.9476199 35.09690516 15.83984375 30.76953125 C15.03850108 29.14644013 14.23706606 27.52339459 13.43554688 25.90039062 C12.18055177 23.34675055 10.92754205 20.79215801 9.67651367 18.23657227 C8.46519364 15.76585832 7.24666455 13.2988041 6.02734375 10.83203125 C5.65334946 10.0622847 5.27935516 9.29253815 4.89402771 8.49946594 C3.19049532 4.57967978 3.19049532 4.57967978 0 2 C0 1.34 0 0.68 0 0 Z " fill="#F0F5FE" transform="translate(90,3)"/>
<path d="M0 0 C0.66 0 1.32 0 2 0 C5 5.625 5 5.625 5 9 C3.68 9.33 2.36 9.66 1 10 C1.020625 9.0925 1.04125 8.185 1.0625 7.25 C1.0110245 4.57327412 0.7784983 2.53011948 0 0 Z " fill="#FAFBFE" transform="translate(173,167)"/>
</svg>
